999
FreeCAD v0.21 33771 (Git)
  0
SECTION
  2
HEADER
  9
$ACADVER
  1
AC1014
  9
$ACADMAINTVER
 70
     9
  9
$DWGCODEPAGE
  3
ANSI_1252
  9
$TEXTSTYLE
  7
STANDARD
  9
$DIMSTYLE
  2
STANDARD
  9
$DIMTXSTY
  7
STANDARD
  9
$CMLSTYLE
  2
STANDARD
  9
$LUNITS
 70
2
  9
$INSUNITS
 70
4
  9
$PEXTMAX
 10
50
 20
50
 30
50
  9
$PEXTMIN
 10
0
 20
0
 30
0
  9
$HANDSEED
  5
FFFF
  0
ENDSEC
  0
SECTION
  2
CLASSES
  0
CLASS
  1
ACDBDICTIONARYWDFLT
  2
AcDbDictionaryWithDefault
  3
ObjectDBX Classes
 90
        0
280
     0
281
     0
  0
CLASS
  1
XRECORD
  2
AcDbXrecord
  3
ObjectDBX Classes
 90
        0
280
     0
281
     0
  0
CLASS
  1
LWPOLYLINE
  2
AcDbPolyline
  3
ObjectDBX Classes
 90
        0
280
     0
281
     1
  0
ENDSEC
  0
SECTION
  2
TABLES
  0
TABLE
  2
VPORT
  5
20
330
0
100
AcDbSymbolTable
 70
     1
  0
VPORT
  5
21
330
20
100
AcDbSymbolTableRecord
100
AcDbViewportTableRecord
  2
*ACTIVE
 70
     0
  0
ENDTAB
  0
TABLE
  2
LTYPE
  5
22
330
0
100
AcDbSymbolTable
 70
     1
  0
LTYPE
  5
23
330
21
100
AcDbSymbolTableRecord
100
AcDbLinetypeTableRecord
  2
BYBLOCK
 70
     0
  3

 72
    65
 73
     0
 40
0.0
  0
LTYPE
  5
24
330
21
100
AcDbSymbolTableRecord
100
AcDbLinetypeTableRecord
  2
BYLAYER
 70
     0
  3

 72
    65
 73
     0
 40
0.0
  0
LTYPE
  5
25
330
21
100
AcDbSymbolTableRecord
100
AcDbLinetypeTableRecord
  2
CONTINUOUS
 70
     0
  3
Solid line
 72
    65
 73
     0
 40
0.0
  0
ENDTAB
  0
TABLE
  2
LAYER
  5
BEF
330
0
100
AcDbSymbolTable
 70
6
  0
LAYER
  5
BF0
330
BEF
100
AcDbSymbolTableRecord
100
AcDbLayerTableRecord
  2
0
 70
   0
 62
   7
  6
CONTINUOUS
  0
LAYER
  5
BF1
330
BEF
100
AcDbSymbolTableRecord
100
AcDbLayerTableRecord
  2
none
 70
    0
 62
    7
  6
CONTINUOUS
  0
LAYER
  5
BF2
330
BEF
100
AcDbSymbolTableRecord
100
AcDbLayerTableRecord
  2
Sketch011
 70
    0
 62
    7
  6
CONTINUOUS
  0
LAYER
  5
BF3
330
BEF
100
AcDbSymbolTableRecord
100
AcDbLayerTableRecord
  2
ShapeString
 70
    0
 62
    7
  6
CONTINUOUS
  0
LAYER
  5
BF4
330
BEF
100
AcDbSymbolTableRecord
100
AcDbLayerTableRecord
  2
Sketch003
 70
    0
 62
    7
  6
CONTINUOUS
  0
LAYER
  5
BF5
330
BEF
100
AcDbSymbolTableRecord
100
AcDbLayerTableRecord
  2
Sketch012
 70
    0
 62
    7
  6
CONTINUOUS
  0
ENDTAB
  0
TABLE
  2
STYLE
  5
70
330
0
100
AcDbSymbolTable
 70
     2
  0
STYLE
  5
71
330
70
100
AcDbSymbolTableRecord
100
AcDbTextStyleTableRecord
  2
STANDARD
 70
     0
 40
0.0
 41
1.0
 50
0.0
 71
     0
 42
2.5
  3
arial.ttf
  4

  0
STYLE
  5
72
330
70
100
AcDbSymbolTableRecord
100
AcDbTextStyleTableRecord
  2
ANNOTATIVE
 70
     0
 40
0.0
 41
1.0
 50
0.0
 71
     0
 42
2.5
  3
arial.ttf
  4

  0
ENDTAB
  0
TABLE
  2
VIEW
  5
73
330
0
100
AcDbSymbolTable
 70
     0
  0
ENDTAB
  0
TABLE
  2
UCS
  5
74
330
0
100
AcDbSymbolTable
 70
     0
  0
ENDTAB
  0
TABLE
  2
APPID
  5
75
330
0
100
AcDbSymbolTable
 70
     2
  0
APPID
  5
76
330
75
100
AcDbSymbolTableRecord
100
AcDbRegAppTableRecord
  2
ACAD
 70
     0
  0
APPID
  5
77
330
75
100
AcDbSymbolTableRecord
100
AcDbRegAppTableRecord
  2
ACADANNOTATIVE
 70
     0
  0
ENDTAB
  0
TABLE
  2
DIMSTYLE
  5
78
330
0
100
AcDbSymbolTable
 70
     2
  0
DIMSTYLE
105
79
330
78
100
AcDbSymbolTableRecord
100
AcDbDimStyleTableRecord
  2
STANDARD
 70
     0
  3

  4

  5

  6

  7

 40
0.0
 41
2.5
 42
0.625
 43
3.75
 44
1.25
 45
0.0
 46
0.0
 47
0.0
 48
0.0
140
2.5
141
2.5
142
0.0
143
0.03937007874016
144
1.0
145
0.0
146
1.0
147
0.625
 71
     0
 72
     0
 73
     0
 74
     0
 75
     0
 76
     0
 77
     1
 78
     8
170
     0
171
     3
172
     1
173
     0
174
     0
175
     0
176
     0
177
     0
178
     0
270
     2
271
     2
272
     2
273
     2
274
     3
340
71
275
     0
280
     0
281
     0
282
     0
283
     0
284
     8
285
     0
286
     0
287
     3
288
     0
  0
ENDTAB
  0
TABLE
  2
BLOCK_RECORD
  5
A01
330
0
100
AcDbSymbolTable
  70
5
  0
BLOCK_RECORD
  5
A02
330
A01
100
AcDbSymbolTableRecord
100
AcDbBlockTableRecord
  2
*MODEL_SPACE
  0
BLOCK_RECORD
  5
A03
330
A01
100
AcDbSymbolTableRecord
100
AcDbBlockTableRecord
  2
*PAPER_SPACE
  0
ENDTAB
  0
ENDSEC
  0
SECTION
  2
BLOCKS
  0
BLOCK
  5
A04
330
A02
100
AcDbEntity
  8
0
100
AcDbBlockBegin
  2
*MODEL_SPACE
 70
   0
 10
0
 20
0
 30
0
  3
*MODEL_SPACE
  1
 
  0
ENDBLK
  5
A05
330
A02
100
AcDbEntity
  8
0
100
AcDbBlockEnd
  0
BLOCK
  5
A06
330
A03
100
AcDbEntity
 67
1
  8
0
100
AcDbBlockBegin
  2
*PAPER_SPACE
 70
   0
 10
0
 20
0
 30
0
  3
*PAPER_SPACE
  1
 
  0
ENDBLK
  5
A07
330
A03
100
AcDbEntity
 67
    1
  8
0
100
AcDbBlockEnd
  0
ENDSEC
  0
SECTION
  2
ENTITIES
  0
LINE
  5
A08
330
A02
100
AcDbEntity
  8
Sketch011
100
AcDbLine
 10
1950
 20
820
 30
0
 11
1950
 21
826
 31
0
  0
LINE
  5
A09
330
A02
100
AcDbEntity
  8
Sketch011
100
AcDbLine
 10
1980
 20
820
 30
0
 11
1950
 21
820
 31
0
  0
LINE
  5
A0A
330
A02
100
AcDbEntity
  8
Sketch011
100
AcDbLine
 10
1980
 20
826
 30
0
 11
1980
 21
820
 31
0
  0
LINE
  5
A0B
330
A02
100
AcDbEntity
  8
Sketch011
100
AcDbLine
 10
1980
 20
826
 30
0
 11
2020
 21
826
 31
0
  0
LINE
  5
A0C
330
A02
100
AcDbEntity
  8
Sketch011
100
AcDbLine
 10
2020
 20
826
 30
0
 11
2020
 21
0
 31
0
  0
LINE
  5
A0D
330
A02
100
AcDbEntity
  8
Sketch011
100
AcDbLine
 10
2020
 20
3.20486e-16
 30
0
 11
1877.5
 21
3.20486e-16
 31
0
  0
LINE
  5
A0E
330
A02
100
AcDbEntity
  8
Sketch011
100
AcDbLine
 10
1877.5
 20
3.20486e-16
 30
0
 11
1877.5
 21
3
 31
0
  0
LINE
  5
A0F
330
A02
100
AcDbEntity
  8
Sketch011
100
AcDbLine
 10
1877.5
 20
3
 30
0
 11
1862.5
 21
3
 31
0
  0
LINE
  5
A10
330
A02
100
AcDbEntity
  8
Sketch011
100
AcDbLine
 10
1862.5
 20
3
 30
0
 11
1862.5
 21
4.44089e-16
 31
0
  0
LINE
  5
A11
330
A02
100
AcDbEntity
  8
Sketch011
100
AcDbLine
 10
1862.5
 20
6.12882e-16
 30
0
 11
1787.5
 21
6.12882e-16
 31
0
  0
LINE
  5
A12
330
A02
100
AcDbEntity
  8
Sketch011
100
AcDbLine
 10
1787.5
 20
6.12882e-16
 30
0
 11
1787.5
 21
3
 31
0
  0
LINE
  5
A13
330
A02
100
AcDbEntity
  8
Sketch011
100
AcDbLine
 10
1787.5
 20
3
 30
0
 11
1772.5
 21
3
 31
0
  0
LINE
  5
A14
330
A02
100
AcDbEntity
  8
Sketch011
100
AcDbLine
 10
1772.5
 20
3
 30
0
 11
1772.5
 21
4.44089e-16
 31
0
  0
LINE
  5
A15
330
A02
100
AcDbEntity
  8
Sketch011
100
AcDbLine
 10
1772.5
 20
4.78187e-16
 30
0
 11
247.5
 21
4.78187e-16
 31
0
  0
LINE
  5
A16
330
A02
100
AcDbEntity
  8
Sketch011
100
AcDbLine
 10
247.5
 20
3
 30
0
 11
247.5
 21
4.44089e-16
 31
0
  0
LINE
  5
A17
330
A02
100
AcDbEntity
  8
Sketch011
100
AcDbLine
 10
232.5
 20
3
 30
0
 11
247.5
 21
3
 31
0
  0
LINE
  5
A18
330
A02
100
AcDbEntity
  8
Sketch011
100
AcDbLine
 10
232.5
 20
2.22045e-16
 30
0
 11
232.5
 21
3
 31
0
  0
LINE
  5
A19
330
A02
100
AcDbEntity
  8
Sketch011
100
AcDbLine
 10
232.5
 20
2.22045e-16
 30
0
 11
157.5
 21
2.22045e-16
 31
0
  0
LINE
  5
A1A
330
A02
100
AcDbEntity
  8
Sketch011
100
AcDbLine
 10
157.5
 20
3
 30
0
 11
157.5
 21
0
 31
0
  0
LINE
  5
A1B
330
A02
100
AcDbEntity
  8
Sketch011
100
AcDbLine
 10
142.5
 20
3
 30
0
 11
157.5
 21
3
 31
0
  0
LINE
  5
A1C
330
A02
100
AcDbEntity
  8
Sketch011
100
AcDbLine
 10
142.5
 20
0
 30
0
 11
142.5
 21
3
 31
0
  0
LINE
  5
A1D
330
A02
100
AcDbEntity
  8
Sketch011
100
AcDbLine
 10
142.5
 20
0
 30
0
 11
0
 21
0
 31
0
  0
LINE
  5
A1E
330
A02
100
AcDbEntity
  8
Sketch011
100
AcDbLine
 10
0
 20
0
 30
0
 11
0
 21
826
 31
0
  0
LINE
  5
A1F
330
A02
100
AcDbEntity
  8
Sketch011
100
AcDbLine
 10
0
 20
826
 30
0
 11
40
 21
826
 31
0
  0
LINE
  5
A20
330
A02
100
AcDbEntity
  8
Sketch011
100
AcDbLine
 10
40
 20
826
 30
0
 11
40
 21
820
 31
0
  0
LINE
  5
A21
330
A02
100
AcDbEntity
  8
Sketch011
100
AcDbLine
 10
40
 20
820
 30
0
 11
70
 21
820
 31
0
  0
LINE
  5
A22
330
A02
100
AcDbEntity
  8
Sketch011
100
AcDbLine
 10
70
 20
820
 30
0
 11
70
 21
826
 31
0
  0
LINE
  5
A23
330
A02
100
AcDbEntity
  8
ShapeString
100
AcDbLine
 10
20.5299
 20
5
 30
0
 11
20.5299
 21
9.67431
 31
0
  0
LINE
  5
A24
330
A02
100
AcDbEntity
  8
ShapeString
100
AcDbLine
 10
21.1414
 20
5
 30
0
 11
20.5299
 21
5
 31
0
  0
LINE
  5
A25
330
A02
100
AcDbEntity
  8
ShapeString
100
AcDbLine
 10
21.1414
 20
7.07898
 30
0
 11
21.1414
 21
5
 31
0
  0
LINE
  5
A26
330
A02
100
AcDbEntity
  8
ShapeString
100
AcDbLine
 10
21.8573
 20
7.07898
 30
0
 11
21.1414
 21
7.07898
 31
0
  0
SPLINE
  5
A27
330
A02
100
AcDbEntity
  8
ShapeString
100
AcDbSpline
210
0
220
0
230
1
 70
8
 71
2
 72
6
 73
3
 74
0
 40
0
 40
0
 40
0
 40
1
 40
1
 40
1
 10
22.2008
 20
7.0569
 30
0
 10
22.096
 20
7.07898
 30
0
 10
21.8573
 20
7.07898
 30
0
  0
SPLINE
  5
A28
330
A02
100
AcDbEntity
  8
ShapeString
100
AcDbSpline
210
0
220
0
230
1
 70
8
 71
2
 72
6
 73
3
 74
0
 40
0
 40
0
 40
0
 40
1
 40
1
 40
1
 10
22.4824
 20
6.93376
 30
0
 10
22.3439
 20
7.02208
 30
0
 10
22.2008
 20
7.0569
 30
0
  0
SPLINE
  5
A29
330
A02
100
AcDbEntity
  8
ShapeString
100
AcDbSpline
210
0
220
0
230
1
 70
8
 71
2
 72
6
 73
3
 74
0
 40
0
 40
0
 40
0
 40
1
 40
1
 40
1
 10
22.7958
 20
6.62144
 30
0
 10
22.6208
 20
6.84544
 30
0
 10
22.4824
 20
6.93376
 30
0
  0
SPLINE
  5
A2A
330
A02
100
AcDbEntity
  8
ShapeString
100
AcDbSpline
210
0
220
0
230
1
 70
8
 71
2
 72
6
 73
3
 74
0
 40
0
 40
0
 40
0
 40
1
 40
1
 40
1
 10
23.2414
 20
5.97558
 30
0
 10
22.9709
 20
6.39766
 30
0
 10
22.7958
 20
6.62144
 30
0
  0
LINE
  5
A2B
330
A02
100
AcDbEntity
  8
ShapeString
100
AcDbLine
 10
23.8586
 20
5
 30
0
 11
23.2414
 21
5.97558
 31
0
  0
LINE
  5
A2C
330
A02
100
AcDbEntity
  8
ShapeString
100
AcDbLine
 10
24.6293
 20
5
 30
0
 11
23.8586
 21
5
 31
0
  0
LINE
  5
A2D
330
A02
100
AcDbEntity
  8
ShapeString
100
AcDbLine
 10
23.8219
 20
6.27622
 30
0
 11
24.6293
 21
5
 31
0
  0
SPLINE
  5
A2E
330
A02
100
AcDbEntity
  8
ShapeString
100
AcDbSpline
210
0
220
0
230
1
 70
8
 71
2
 72
6
 73
3
 74
0
 40
0
 40
0
 40
0
 40
1
 40
1
 40
1
 10
23.311
 20
6.89979
 30
0
 10
23.5813
 20
6.65011
 30
0
 10
23.8219
 20
6.27622
 30
0
  0
SPLINE
  5
A2F
330
A02
100
AcDbEntity
  8
ShapeString
100
AcDbSpline
210
0
220
0
230
1
 70
8
 71
2
 72
6
 73
3
 74
0
 40
0
 40
0
 40
0
 40
1
 40
1
 40
1
 10
22.9391
 20
7.13333
 30
0
 10
23.1839
 20
7.01486
 30
0
 10
23.311
 20
6.89979
 30
0
  0
SPLINE
  5
A30
330
A02
100
AcDbEntity
  8
ShapeString
100
AcDbSpline
210
0
220
0
230
1
 70
8
 71
2
 72
6
 73
3
 74
0
 40
0
 40
0
 40
0
 40
1
 40
1
 40
1
 10
23.9316
 20
7.56582
 30
0
 10
23.6104
 20
7.22548
 30
0
 10
22.9391
 20
7.13333
 30
0
  0
SPLINE
  5
A31
330
A02
100
AcDbEntity
  8
ShapeString
100
AcDbSpline
210
0
220
0
230
1
 70
8
 71
2
 72
6
 73
3
 74
0
 40
0
 40
0
 40
0
 40
1
 40
1
 40
1
 10
24.2531
 20
8.40234
 30
0
 10
24.2531
 20
7.90616
 30
0
 10
23.9316
 20
7.56582
 30
0
  0
SPLINE
  5
A32
330
A02
100
AcDbEntity
  8
ShapeString
100
AcDbSpline
210
0
220
0
230
1
 70
8
 71
2
 72
6
 73
3
 74
0
 40
0
 40
0
 40
0
 40
1
 40
1
 40
1
 10
24.059
 20
9.1051
 30
0
 10
24.2531
 20
8.78705
 30
0
 10
24.2531
 20
8.40234
 30
0
  0
SPLINE
  5
A33
330
A02
100
AcDbEntity
  8
ShapeString
100
AcDbSpline
210
0
220
0
230
1
 70
8
 71
2
 72
6
 73
3
 74
0
 40
0
 40
0
 40
0
 40
1
 40
1
 40
1
 10
23.5403
 20
9.54862
 30
0
 10
23.865
 20
9.42314
 30
0
 10
24.059
 20
9.1051
 30
0
  0
SPLINE
  5
A34
330
A02
100
AcDbEntity
  8
ShapeString
100
AcDbSpline
210
0
220
0
230
1
 70
8
 71
2
 72
6
 73
3
 74
0
 40
0
 40
0
 40
0
 40
1
 40
1
 40
1
 10
22.5921
 20
9.67431
 30
0
 10
23.2157
 20
9.67431
 30
0
 10
23.5403
 20
9.54862
 30
0
  0
LINE
  5
A35
330
A02
100
AcDbEntity
  8
ShapeString
100
AcDbLine
 10
20.5299
 20
9.67431
 30
0
 11
22.5921
 21
9.67431
 31
0
  0
LINE
  5
A36
330
A02
100
AcDbEntity
  8
ShapeString
100
AcDbLine
 10
21.1414
 20
7.63609
 30
0
 11
22.4682
 21
7.63609
 31
0
  0
LINE
  5
A37
330
A02
100
AcDbEntity
  8
ShapeString
100
AcDbLine
 10
21.1414
 20
9.15796
 30
0
 11
21.1414
 21
7.63609
 31
0
  0
LINE
  5
A38
330
A02
100
AcDbEntity
  8
ShapeString
100
AcDbLine
 10
22.6176
 20
9.15796
 30
0
 11
21.1414
 21
9.15796
 31
0
  0
SPLINE
  5
A39
330
A02
100
AcDbEntity
  8
ShapeString
100
AcDbSpline
210
0
220
0
230
1
 70
8
 71
2
 72
6
 73
3
 74
0
 40
0
 40
0
 40
0
 40
1
 40
1
 40
1
 10
23.3747
 20
8.94777
 30
0
 10
23.135
 20
9.15796
 30
0
 10
22.6176
 20
9.15796
 30
0
  0
SPLINE
  5
A3A
330
A02
100
AcDbEntity
  8
ShapeString
100
AcDbSpline
210
0
220
0
230
1
 70
8
 71
2
 72
6
 73
3
 74
0
 40
0
 40
0
 40
0
 40
1
 40
1
 40
1
 10
23.6144
 20
8.41125
 30
0
 10
23.6144
 20
8.73758
 30
0
 10
23.3747
 20
8.94777
 30
0
  0
SPLINE
  5
A3B
330
A02
100
AcDbEntity
  8
ShapeString
100
AcDbSpline
210
0
220
0
230
1
 70
8
 71
2
 72
6
 73
3
 74
0
 40
0
 40
0
 40
0
 40
1
 40
1
 40
1
 10
23.4907
 20
7.99851
 30
0
 10
23.6144
 20
8.18832
 30
0
 10
23.6144
 20
8.41125
 30
0
  0
SPLINE
  5
A3C
330
A02
100
AcDbEntity
  8
ShapeString
100
AcDbSpline
210
0
220
0
230
1
 70
8
 71
2
 72
6
 73
3
 74
0
 40
0
 40
0
 40
0
 40
1
 40
1
 40
1
 10
23.1291
 20
7.72229
 30
0
 10
23.3671
 20
7.8087
 30
0
 10
23.4907
 20
7.99851
 30
0
  0
SPLINE
  5
A3D
330
A02
100
AcDbEntity
  8
ShapeString
100
AcDbSpline
210
0
220
0
230
1
 70
8
 71
2
 72
6
 73
3
 74
0
 40
0
 40
0
 40
0
 40
1
 40
1
 40
1
 10
22.4682
 20
7.63609
 30
0
 10
22.8913
 20
7.63609
 30
0
 10
23.1291
 20
7.72229
 30
0
  0
LINE
  5
A3E
330
A02
100
AcDbEntity
  8
ShapeString
100
AcDbLine
 10
25.3265
 20
5
 30
0
 11
25.3265
 21
9.67431
 31
0
  0
LINE
  5
A3F
330
A02
100
AcDbEntity
  8
ShapeString
100
AcDbLine
 10
25.938
 20
5
 30
0
 11
25.3265
 21
5
 31
0
  0
LINE
  5
A40
330
A02
100
AcDbEntity
  8
ShapeString
100
AcDbLine
 10
25.938
 20
9.67431
 30
0
 11
25.938
 21
5
 31
0
  0
LINE
  5
A41
330
A02
100
AcDbEntity
  8
ShapeString
100
AcDbLine
 10
25.3265
 20
9.67431
 30
0
 11
25.938
 21
9.67431
 31
0
  0
LINE
  5
A42
330
A02
100
AcDbEntity
  8
ShapeString
100
AcDbLine
 10
27.0522
 20
5
 30
0
 11
27.0522
 21
9.67431
 31
0
  0
LINE
  5
A43
330
A02
100
AcDbEntity
  8
ShapeString
100
AcDbLine
 10
27.6637
 20
5
 30
0
 11
27.0522
 21
5
 31
0
  0
LINE
  5
A44
330
A02
100
AcDbEntity
  8
ShapeString
100
AcDbLine
 10
27.6637
 20
7.11975
 30
0
 11
27.6637
 21
5
 31
0
  0
LINE
  5
A45
330
A02
100
AcDbEntity
  8
ShapeString
100
AcDbLine
 10
29.8514
 20
7.11975
 30
0
 11
27.6637
 21
7.11975
 31
0
  0
LINE
  5
A46
330
A02
100
AcDbEntity
  8
ShapeString
100
AcDbLine
 10
29.8514
 20
7.67686
 30
0
 11
29.8514
 21
7.11975
 31
0
  0
LINE
  5
A47
330
A02
100
AcDbEntity
  8
ShapeString
100
AcDbLine
 10
27.6637
 20
7.67686
 30
0
 11
29.8514
 21
7.67686
 31
0
  0
LINE
  5
A48
330
A02
100
AcDbEntity
  8
ShapeString
100
AcDbLine
 10
27.6637
 20
9.1172
 30
0
 11
27.6637
 21
7.67686
 31
0
  0
LINE
  5
A49
330
A02
100
AcDbEntity
  8
ShapeString
100
AcDbLine
 10
30.1911
 20
9.1172
 30
0
 11
27.6637
 21
9.1172
 31
0
  0
LINE
  5
A4A
330
A02
100
AcDbEntity
  8
ShapeString
100
AcDbLine
 10
30.1911
 20
9.67431
 30
0
 11
30.1911
 21
9.1172
 31
0
  0
LINE
  5
A4B
330
A02
100
AcDbEntity
  8
ShapeString
100
AcDbLine
 10
27.0522
 20
9.67431
 30
0
 11
30.1911
 21
9.67431
 31
0
  0
LINE
  5
A4C
330
A02
100
AcDbEntity
  8
ShapeString
100
AcDbLine
 10
31.1151
 20
5
 30
0
 11
31.1151
 21
9.67431
 31
0
  0
LINE
  5
A4D
330
A02
100
AcDbEntity
  8
ShapeString
100
AcDbLine
 10
31.7265
 20
5
 30
0
 11
31.1151
 21
5
 31
0
  0
LINE
  5
A4E
330
A02
100
AcDbEntity
  8
ShapeString
100
AcDbLine
 10
31.7265
 20
9.67431
 30
0
 11
31.7265
 21
5
 31
0
  0
LINE
  5
A4F
330
A02
100
AcDbEntity
  8
ShapeString
100
AcDbLine
 10
31.1151
 20
9.67431
 30
0
 11
31.7265
 21
9.67431
 31
0
  0
LINE
  5
A50
330
A02
100
AcDbEntity
  8
ShapeString
100
AcDbLine
 10
32.7864
 20
5
 30
0
 11
32.7864
 21
9.67431
 31
0
  0
LINE
  5
A51
330
A02
100
AcDbEntity
  8
ShapeString
100
AcDbLine
 10
33.3843
 20
5
 30
0
 11
32.7864
 21
5
 31
0
  0
LINE
  5
A52
330
A02
100
AcDbEntity
  8
ShapeString
100
AcDbLine
 10
33.3843
 20
8.96773
 30
0
 11
33.3843
 21
5
 31
0
  0
LINE
  5
A53
330
A02
100
AcDbEntity
  8
ShapeString
100
AcDbLine
 10
34.7361
 20
5
 30
0
 11
33.3843
 21
8.96773
 31
0
  0
LINE
  5
A54
330
A02
100
AcDbEntity
  8
ShapeString
100
AcDbLine
 10
35.2762
 20
5
 30
0
 11
34.7361
 21
5
 31
0
  0
LINE
  5
A55
330
A02
100
AcDbEntity
  8
ShapeString
100
AcDbLine
 10
36.659
 20
8.91338
 30
0
 11
35.2762
 21
5
 31
0
  0
LINE
  5
A56
330
A02
100
AcDbEntity
  8
ShapeString
100
AcDbLine
 10
36.659
 20
5
 30
0
 11
36.659
 21
8.91338
 31
0
  0
LINE
  5
A57
330
A02
100
AcDbEntity
  8
ShapeString
100
AcDbLine
 10
37.2569
 20
5
 30
0
 11
36.659
 21
5
 31
0
  0
LINE
  5
A58
330
A02
100
AcDbEntity
  8
ShapeString
100
AcDbLine
 10
37.2569
 20
9.67431
 30
0
 11
37.2569
 21
5
 31
0
  0
LINE
  5
A59
330
A02
100
AcDbEntity
  8
ShapeString
100
AcDbLine
 10
36.4488
 20
9.67431
 30
0
 11
37.2569
 21
9.67431
 31
0
  0
LINE
  5
A5A
330
A02
100
AcDbEntity
  8
ShapeString
100
AcDbLine
 10
35.3034
 20
6.4259
 30
0
 11
36.4488
 21
9.67431
 31
0
  0
SPLINE
  5
A5B
330
A02
100
AcDbEntity
  8
ShapeString
100
AcDbSpline
210
0
220
0
230
1
 70
8
 71
2
 72
6
 73
3
 74
0
 40
0
 40
0
 40
0
 40
1
 40
1
 40
1
 10
35.0488
 20
5.67749
 30
0
 10
35.1304
 20
5.93227
 30
0
 10
35.3034
 20
6.4259
 30
0
  0
SPLINE
  5
A5C
330
A02
100
AcDbEntity
  8
ShapeString
100
AcDbSpline
210
0
220
0
230
1
 70
8
 71
2
 72
6
 73
3
 74
0
 40
0
 40
0
 40
0
 40
1
 40
1
 40
1
 10
34.8246
 20
6.36858
 30
0
 10
34.9783
 20
5.90679
 30
0
 10
35.0488
 20
5.67749
 30
0
  0
LINE
  5
A5D
330
A02
100
AcDbEntity
  8
ShapeString
100
AcDbLine
 10
33.7138
 20
9.67431
 30
0
 11
34.8246
 21
6.36858
 31
0
  0
LINE
  5
A5E
330
A02
100
AcDbEntity
  8
ShapeString
100
AcDbLine
 10
32.7864
 20
9.67431
 30
0
 11
33.7138
 21
9.67431
 31
0
  0
LINE
  5
A5F
330
A02
100
AcDbEntity
  8
ShapeString
100
AcDbLine
 10
38.2488
 20
5
 30
0
 11
38.2488
 21
9.67431
 31
0
  0
LINE
  5
A60
330
A02
100
AcDbEntity
  8
ShapeString
100
AcDbLine
 10
38.8603
 20
5
 30
0
 11
38.2488
 21
5
 31
0
  0
LINE
  5
A61
330
A02
100
AcDbEntity
  8
ShapeString
100
AcDbLine
 10
38.8603
 20
6.88875
 30
0
 11
38.8603
 21
5
 31
0
  0
LINE
  5
A62
330
A02
100
AcDbEntity
  8
ShapeString
100
AcDbLine
 10
40.0588
 20
6.88875
 30
0
 11
38.8603
 21
6.88875
 31
0
  0
SPLINE
  5
A63
330
A02
100
AcDbEntity
  8
ShapeString
100
AcDbSpline
210
0
220
0
230
1
 70
8
 71
2
 72
6
 73
3
 74
0
 40
0
 40
0
 40
0
 40
1
 40
1
 40
1
 10
41.4295
 20
7.3034
 30
0
 10
41.0503
 20
6.88875
 30
0
 10
40.0588
 20
6.88875
 30
0
  0
SPLINE
  5
A64
330
A02
100
AcDbEntity
  8
ShapeString
100
AcDbSpline
210
0
220
0
230
1
 70
8
 71
2
 72
6
 73
3
 74
0
 40
0
 40
0
 40
0
 40
1
 40
1
 40
1
 10
41.8089
 20
8.31677
 30
0
 10
41.8089
 20
7.71805
 30
0
 10
41.4295
 20
7.3034
 30
0
  0
SPLINE
  5
A65
330
A02
100
AcDbEntity
  8
ShapeString
100
AcDbSpline
210
0
220
0
230
1
 70
8
 71
2
 72
6
 73
3
 74
0
 40
0
 40
0
 40
0
 40
1
 40
1
 40
1
 10
41.6673
 20
8.95711
 30
0
 10
41.8089
 20
8.66582
 30
0
 10
41.8089
 20
8.31677
 30
0
  0
SPLINE
  5
A66
330
A02
100
AcDbEntity
  8
ShapeString
100
AcDbSpline
210
0
220
0
230
1
 70
8
 71
2
 72
6
 73
3
 74
0
 40
0
 40
0
 40
0
 40
1
 40
1
 40
1
 10
41.2934
 20
9.40998
 30
0
 10
41.5257
 20
9.24841
 30
0
 10
41.6673
 20
8.95711
 30
0
  0
SPLINE
  5
A67
330
A02
100
AcDbEntity
  8
ShapeString
100
AcDbSpline
210
0
220
0
230
1
 70
8
 71
2
 72
6
 73
3
 74
0
 40
0
 40
0
 40
0
 40
1
 40
1
 40
1
 10
40.7176
 20
9.62951
 30
0
 10
41.0614
 20
9.57176
 30
0
 10
41.2934
 20
9.40998
 30
0
  0
SPLINE
  5
A68
330
A02
100
AcDbEntity
  8
ShapeString
100
AcDbSpline
210
0
220
0
230
1
 70
8
 71
2
 72
6
 73
3
 74
0
 40
0
 40
0
 40
0
 40
1
 40
1
 40
1
 10
40.0083
 20
9.67431
 30
0
 10
40.4726
 20
9.67431
 30
0
 10
40.7176
 20
9.62951
 30
0
  0
LINE
  5
A69
330
A02
100
AcDbEntity
  8
ShapeString
100
AcDbLine
 10
38.2488
 20
9.67431
 30
0
 11
40.0083
 21
9.67431
 31
0
  0
LINE
  5
A6A
330
A02
100
AcDbEntity
  8
ShapeString
100
AcDbLine
 10
38.8603
 20
7.44586
 30
0
 11
40.0679
 21
7.44586
 31
0
  0
LINE
  5
A6B
330
A02
100
AcDbEntity
  8
ShapeString
100
AcDbLine
 10
38.8603
 20
9.1172
 30
0
 11
38.8603
 21
7.44586
 31
0
  0
LINE
  5
A6C
330
A02
100
AcDbEntity
  8
ShapeString
100
AcDbLine
 10
40.0552
 20
9.1172
 30
0
 11
38.8603
 21
9.1172
 31
0
  0
SPLINE
  5
A6D
330
A02
100
AcDbEntity
  8
ShapeString
100
AcDbSpline
210
0
220
0
230
1
 70
8
 71
2
 72
6
 73
3
 74
0
 40
0
 40
0
 40
0
 40
1
 40
1
 40
1
 10
40.6318
 20
9.0758
 30
0
 10
40.4756
 20
9.1172
 30
0
 10
40.0552
 20
9.1172
 30
0
  0
SPLINE
  5
A6E
330
A02
100
AcDbEntity
  8
ShapeString
100
AcDbSpline
210
0
220
0
230
1
 70
8
 71
2
 72
6
 73
3
 74
0
 40
0
 40
0
 40
0
 40
1
 40
1
 40
1
 10
41.0221
 20
8.79979
 30
0
 10
40.8739
 20
9.0087
 30
0
 10
40.6318
 20
9.0758
 30
0
  0
SPLINE
  5
A6F
330
A02
100
AcDbEntity
  8
ShapeString
100
AcDbSpline
210
0
220
0
230
1
 70
8
 71
2
 72
6
 73
3
 74
0
 40
0
 40
0
 40
0
 40
1
 40
1
 40
1
 10
41.1703
 20
8.29745
 30
0
 10
41.1703
 20
8.59087
 30
0
 10
41.0221
 20
8.79979
 30
0
  0
SPLINE
  5
A70
330
A02
100
AcDbEntity
  8
ShapeString
100
AcDbSpline
210
0
220
0
230
1
 70
8
 71
2
 72
6
 73
3
 74
0
 40
0
 40
0
 40
0
 40
1
 40
1
 40
1
 10
40.9185
 20
7.669
 30
0
 10
41.1703
 20
7.89236
 30
0
 10
41.1703
 20
8.29745
 30
0
  0
SPLINE
  5
A71
330
A02
100
AcDbEntity
  8
ShapeString
100
AcDbSpline
210
0
220
0
230
1
 70
8
 71
2
 72
6
 73
3
 74
0
 40
0
 40
0
 40
0
 40
1
 40
1
 40
1
 10
40.0679
 20
7.44586
 30
0
 10
40.6669
 20
7.44586
 30
0
 10
40.9185
 20
7.669
 30
0
  0
SPLINE
  5
A72
330
A02
100
AcDbEntity
  8
ShapeString
100
AcDbSpline
210
0
220
0
230
1
 70
8
 71
2
 72
6
 73
3
 74
0
 40
0
 40
0
 40
0
 40
1
 40
1
 40
1
 10
42.366
 20
7.30828
 30
0
 10
42.366
 20
8.13907
 30
0
 10
42.5372
 20
8.64883
 30
0
  0
SPLINE
  5
A73
330
A02
100
AcDbEntity
  8
ShapeString
100
AcDbSpline
210
0
220
0
230
1
 70
8
 71
2
 72
6
 73
3
 74
0
 40
0
 40
0
 40
0
 40
1
 40
1
 40
1
 10
42.8297
 20
5.39724
 30
0
 10
42.366
 20
5.98875
 30
0
 10
42.366
 20
7.30828
 30
0
  0
SPLINE
  5
A74
330
A02
100
AcDbEntity
  8
ShapeString
100
AcDbSpline
210
0
220
0
230
1
 70
8
 71
2
 72
6
 73
3
 74
0
 40
0
 40
0
 40
0
 40
1
 40
1
 40
1
 10
43.8947
 20
4.91847
 30
0
 10
43.2168
 20
4.91847
 30
0
 10
42.8297
 20
5.39724
 30
0
  0
SPLINE
  5
A75
330
A02
100
AcDbEntity
  8
ShapeString
100
AcDbSpline
210
0
220
0
230
1
 70
8
 71
2
 72
6
 73
3
 74
0
 40
0
 40
0
 40
0
 40
1
 40
1
 40
1
 10
44.7469
 20
5.1913
 30
0
 10
44.4096
 20
4.91847
 30
0
 10
43.8947
 20
4.91847
 30
0
  0
SPLINE
  5
A76
330
A02
100
AcDbEntity
  8
ShapeString
100
AcDbSpline
210
0
220
0
230
1
 70
8
 71
2
 72
6
 73
3
 74
0
 40
0
 40
0
 40
0
 40
1
 40
1
 40
1
 10
45.2537
 20
5.9741
 30
0
 10
45.0843
 20
5.46433
 30
0
 10
44.7469
 20
5.1913
 30
0
  0
SPLINE
  5
A77
330
A02
100
AcDbEntity
  8
ShapeString
100
AcDbSpline
210
0
220
0
230
1
 70
8
 71
2
 72
6
 73
3
 74
0
 40
0
 40
0
 40
0
 40
1
 40
1
 40
1
 10
45.4234
 20
7.30828
 30
0
 10
45.4234
 20
6.48408
 30
0
 10
45.2537
 20
5.9741
 30
0
  0
SPLINE
  5
A78
330
A02
100
AcDbEntity
  8
ShapeString
100
AcDbSpline
210
0
220
0
230
1
 70
8
 71
2
 72
6
 73
3
 74
0
 40
0
 40
0
 40
0
 40
1
 40
1
 40
1
 10
45.3178
 20
8.4155
 30
0
 10
45.4234
 20
8.00488
 30
0
 10
45.4234
 20
7.30828
 30
0
  0
SPLINE
  5
A79
330
A02
100
AcDbEntity
  8
ShapeString
100
AcDbSpline
210
0
220
0
230
1
 70
8
 71
2
 72
6
 73
3
 74
0
 40
0
 40
0
 40
0
 40
1
 40
1
 40
1
 10
45.0301
 20
9.11189
 30
0
 10
45.2123
 20
8.82611
 30
0
 10
45.3178
 20
8.4155
 30
0
  0
SPLINE
  5
A7A
330
A02
100
AcDbEntity
  8
ShapeString
100
AcDbSpline
210
0
220
0
230
1
 70
8
 71
2
 72
6
 73
3
 74
0
 40
0
 40
0
 40
0
 40
1
 40
1
 40
1
 10
44.5601
 20
9.54968
 30
0
 10
44.8482
 20
9.39788
 30
0
 10
45.0301
 20
9.11189
 30
0
  0
SPLINE
  5
A7B
330
A02
100
AcDbEntity
  8
ShapeString
100
AcDbSpline
210
0
220
0
230
1
 70
8
 71
2
 72
6
 73
3
 74
0
 40
0
 40
0
 40
0
 40
1
 40
1
 40
1
 10
43.8947
 20
9.70149
 30
0
 10
44.272
 20
9.70149
 30
0
 10
44.5601
 20
9.54968
 30
0
  0
SPLINE
  5
A7C
330
A02
100
AcDbEntity
  8
ShapeString
100
AcDbSpline
210
0
220
0
230
1
 70
8
 71
2
 72
6
 73
3
 74
0
 40
0
 40
0
 40
0
 40
1
 40
1
 40
1
 10
43.0456
 20
9.43015
 30
0
 10
43.383
 20
9.70149
 30
0
 10
43.8947
 20
9.70149
 30
0
  0
SPLINE
  5
A7D
330
A02
100
AcDbEntity
  8
ShapeString
100
AcDbSpline
210
0
220
0
230
1
 70
8
 71
2
 72
6
 73
3
 74
0
 40
0
 40
0
 40
0
 40
1
 40
1
 40
1
 10
42.5372
 20
8.64883
 30
0
 10
42.7083
 20
9.15881
 30
0
 10
43.0456
 20
9.43015
 30
0
  0
SPLINE
  5
A7E
330
A02
100
AcDbEntity
  8
ShapeString
100
AcDbSpline
210
0
220
0
230
1
 70
8
 71
2
 72
6
 73
3
 74
0
 40
0
 40
0
 40
0
 40
1
 40
1
 40
1
 10
42.9503
 20
7.30998
 30
0
 10
42.9503
 20
6.15053
 30
0
 10
43.2227
 20
5.77219
 30
0
  0
SPLINE
  5
A7F
330
A02
100
AcDbEntity
  8
ShapeString
100
AcDbSpline
210
0
220
0
230
1
 70
8
 71
2
 72
6
 73
3
 74
0
 40
0
 40
0
 40
0
 40
1
 40
1
 40
1
 10
43.2467
 20
8.89066
 30
0
 10
42.9503
 20
8.46263
 30
0
 10
42.9503
 20
7.30998
 30
0
  0
SPLINE
  5
A80
330
A02
100
AcDbEntity
  8
ShapeString
100
AcDbSpline
210
0
220
0
230
1
 70
8
 71
2
 72
6
 73
3
 74
0
 40
0
 40
0
 40
0
 40
1
 40
1
 40
1
 10
43.8883
 20
9.2259
 30
0
 10
43.4885
 20
9.2259
 30
0
 10
43.2467
 20
8.89066
 30
0
  0
SPLINE
  5
A81
330
A02
100
AcDbEntity
  8
ShapeString
100
AcDbSpline
210
0
220
0
230
1
 70
8
 71
2
 72
6
 73
3
 74
0
 40
0
 40
0
 40
0
 40
1
 40
1
 40
1
 10
44.5684
 20
8.84586
 30
0
 10
44.2977
 20
9.2259
 30
0
 10
43.8883
 20
9.2259
 30
0
  0
SPLINE
  5
A82
330
A02
100
AcDbEntity
  8
ShapeString
100
AcDbSpline
210
0
220
0
230
1
 70
8
 71
2
 72
6
 73
3
 74
0
 40
0
 40
0
 40
0
 40
1
 40
1
 40
1
 10
44.8391
 20
7.30998
 30
0
 10
44.8391
 20
8.46582
 30
0
 10
44.5684
 20
8.84586
 30
0
  0
SPLINE
  5
A83
330
A02
100
AcDbEntity
  8
ShapeString
100
AcDbSpline
210
0
220
0
230
1
 70
8
 71
2
 72
6
 73
3
 74
0
 40
0
 40
0
 40
0
 40
1
 40
1
 40
1
 10
44.5667
 20
5.77389
 30
0
 10
44.8391
 20
6.15372
 30
0
 10
44.8391
 20
7.30998
 30
0
  0
SPLINE
  5
A84
330
A02
100
AcDbEntity
  8
ShapeString
100
AcDbSpline
210
0
220
0
230
1
 70
8
 71
2
 72
6
 73
3
 74
0
 40
0
 40
0
 40
0
 40
1
 40
1
 40
1
 10
43.8947
 20
5.39406
 30
0
 10
44.2943
 20
5.39406
 30
0
 10
44.5667
 20
5.77389
 30
0
  0
SPLINE
  5
A85
330
A02
100
AcDbEntity
  8
ShapeString
100
AcDbSpline
210
0
220
0
230
1
 70
8
 71
2
 72
6
 73
3
 74
0
 40
0
 40
0
 40
0
 40
1
 40
1
 40
1
 10
43.2227
 20
5.77219
 30
0
 10
43.4951
 20
5.39406
 30
0
 10
43.8947
 20
5.39406
 30
0
  0
SPLINE
  5
A86
330
A02
100
AcDbEntity
  8
ShapeString
100
AcDbSpline
210
0
220
0
230
1
 70
8
 71
2
 72
6
 73
3
 74
0
 40
0
 40
0
 40
0
 40
1
 40
1
 40
1
 10
45.9941
 20
7.30828
 30
0
 10
45.9941
 20
8.13907
 30
0
 10
46.1652
 20
8.64883
 30
0
  0
SPLINE
  5
A87
330
A02
100
AcDbEntity
  8
ShapeString
100
AcDbSpline
210
0
220
0
230
1
 70
8
 71
2
 72
6
 73
3
 74
0
 40
0
 40
0
 40
0
 40
1
 40
1
 40
1
 10
46.4577
 20
5.39724
 30
0
 10
45.9941
 20
5.98875
 30
0
 10
45.9941
 20
7.30828
 30
0
  0
SPLINE
  5
A88
330
A02
100
AcDbEntity
  8
ShapeString
100
AcDbSpline
210
0
220
0
230
1
 70
8
 71
2
 72
6
 73
3
 74
0
 40
0
 40
0
 40
0
 40
1
 40
1
 40
1
 10
47.5227
 20
4.91847
 30
0
 10
46.8448
 20
4.91847
 30
0
 10
46.4577
 20
5.39724
 30
0
  0
SPLINE
  5
A89
330
A02
100
AcDbEntity
  8
ShapeString
100
AcDbSpline
210
0
220
0
230
1
 70
8
 71
2
 72
6
 73
3
 74
0
 40
0
 40
0
 40
0
 40
1
 40
1
 40
1
 10
48.3749
 20
5.1913
 30
0
 10
48.0376
 20
4.91847
 30
0
 10
47.5227
 20
4.91847
 30
0
  0
SPLINE
  5
A8A
330
A02
100
AcDbEntity
  8
ShapeString
100
AcDbSpline
210
0
220
0
230
1
 70
8
 71
2
 72
6
 73
3
 74
0
 40
0
 40
0
 40
0
 40
1
 40
1
 40
1
 10
48.8817
 20
5.9741
 30
0
 10
48.7123
 20
5.46433
 30
0
 10
48.3749
 20
5.1913
 30
0
  0
SPLINE
  5
A8B
330
A02
100
AcDbEntity
  8
ShapeString
100
AcDbSpline
210
0
220
0
230
1
 70
8
 71
2
 72
6
 73
3
 74
0
 40
0
 40
0
 40
0
 40
1
 40
1
 40
1
 10
49.0514
 20
7.30828
 30
0
 10
49.0514
 20
6.48408
 30
0
 10
48.8817
 20
5.9741
 30
0
  0
SPLINE
  5
A8C
330
A02
100
AcDbEntity
  8
ShapeString
100
AcDbSpline
210
0
220
0
230
1
 70
8
 71
2
 72
6
 73
3
 74
0
 40
0
 40
0
 40
0
 40
1
 40
1
 40
1
 10
48.9459
 20
8.4155
 30
0
 10
49.0514
 20
8.00488
 30
0
 10
49.0514
 20
7.30828
 30
0
  0
SPLINE
  5
A8D
330
A02
100
AcDbEntity
  8
ShapeString
100
AcDbSpline
210
0
220
0
230
1
 70
8
 71
2
 72
6
 73
3
 74
0
 40
0
 40
0
 40
0
 40
1
 40
1
 40
1
 10
48.6582
 20
9.11189
 30
0
 10
48.8403
 20
8.82611
 30
0
 10
48.9459
 20
8.4155
 30
0
  0
SPLINE
  5
A8E
330
A02
100
AcDbEntity
  8
ShapeString
100
AcDbSpline
210
0
220
0
230
1
 70
8
 71
2
 72
6
 73
3
 74
0
 40
0
 40
0
 40
0
 40
1
 40
1
 40
1
 10
48.1881
 20
9.54968
 30
0
 10
48.4762
 20
9.39788
 30
0
 10
48.6582
 20
9.11189
 30
0
  0
SPLINE
  5
A8F
330
A02
100
AcDbEntity
  8
ShapeString
100
AcDbSpline
210
0
220
0
230
1
 70
8
 71
2
 72
6
 73
3
 74
0
 40
0
 40
0
 40
0
 40
1
 40
1
 40
1
 10
47.5227
 20
9.70149
 30
0
 10
47.9
 20
9.70149
 30
0
 10
48.1881
 20
9.54968
 30
0
  0
SPLINE
  5
A90
330
A02
100
AcDbEntity
  8
ShapeString
100
AcDbSpline
210
0
220
0
230
1
 70
8
 71
2
 72
6
 73
3
 74
0
 40
0
 40
0
 40
0
 40
1
 40
1
 40
1
 10
46.6737
 20
9.43015
 30
0
 10
47.011
 20
9.70149
 30
0
 10
47.5227
 20
9.70149
 30
0
  0
SPLINE
  5
A91
330
A02
100
AcDbEntity
  8
ShapeString
100
AcDbSpline
210
0
220
0
230
1
 70
8
 71
2
 72
6
 73
3
 74
0
 40
0
 40
0
 40
0
 40
1
 40
1
 40
1
 10
46.1652
 20
8.64883
 30
0
 10
46.3363
 20
9.15881
 30
0
 10
46.6737
 20
9.43015
 30
0
  0
SPLINE
  5
A92
330
A02
100
AcDbEntity
  8
ShapeString
100
AcDbSpline
210
0
220
0
230
1
 70
8
 71
2
 72
6
 73
3
 74
0
 40
0
 40
0
 40
0
 40
1
 40
1
 40
1
 10
46.5783
 20
7.30998
 30
0
 10
46.5783
 20
6.15053
 30
0
 10
46.8507
 20
5.77219
 30
0
  0
SPLINE
  5
A93
330
A02
100
AcDbEntity
  8
ShapeString
100
AcDbSpline
210
0
220
0
230
1
 70
8
 71
2
 72
6
 73
3
 74
0
 40
0
 40
0
 40
0
 40
1
 40
1
 40
1
 10
46.8747
 20
8.89066
 30
0
 10
46.5783
 20
8.46263
 30
0
 10
46.5783
 20
7.30998
 30
0
  0
SPLINE
  5
A94
330
A02
100
AcDbEntity
  8
ShapeString
100
AcDbSpline
210
0
220
0
230
1
 70
8
 71
2
 72
6
 73
3
 74
0
 40
0
 40
0
 40
0
 40
1
 40
1
 40
1
 10
47.5163
 20
9.2259
 30
0
 10
47.1166
 20
9.2259
 30
0
 10
46.8747
 20
8.89066
 30
0
  0
SPLINE
  5
A95
330
A02
100
AcDbEntity
  8
ShapeString
100
AcDbSpline
210
0
220
0
230
1
 70
8
 71
2
 72
6
 73
3
 74
0
 40
0
 40
0
 40
0
 40
1
 40
1
 40
1
 10
48.1964
 20
8.84586
 30
0
 10
47.9257
 20
9.2259
 30
0
 10
47.5163
 20
9.2259
 30
0
  0
SPLINE
  5
A96
330
A02
100
AcDbEntity
  8
ShapeString
100
AcDbSpline
210
0
220
0
230
1
 70
8
 71
2
 72
6
 73
3
 74
0
 40
0
 40
0
 40
0
 40
1
 40
1
 40
1
 10
48.4671
 20
7.30998
 30
0
 10
48.4671
 20
8.46582
 30
0
 10
48.1964
 20
8.84586
 30
0
  0
SPLINE
  5
A97
330
A02
100
AcDbEntity
  8
ShapeString
100
AcDbSpline
210
0
220
0
230
1
 70
8
 71
2
 72
6
 73
3
 74
0
 40
0
 40
0
 40
0
 40
1
 40
1
 40
1
 10
48.1947
 20
5.77389
 30
0
 10
48.4671
 20
6.15372
 30
0
 10
48.4671
 20
7.30998
 30
0
  0
SPLINE
  5
A98
330
A02
100
AcDbEntity
  8
ShapeString
100
AcDbSpline
210
0
220
0
230
1
 70
8
 71
2
 72
6
 73
3
 74
0
 40
0
 40
0
 40
0
 40
1
 40
1
 40
1
 10
47.5227
 20
5.39406
 30
0
 10
47.9223
 20
5.39406
 30
0
 10
48.1947
 20
5.77389
 30
0
  0
SPLINE
  5
A99
330
A02
100
AcDbEntity
  8
ShapeString
100
AcDbSpline
210
0
220
0
230
1
 70
8
 71
2
 72
6
 73
3
 74
0
 40
0
 40
0
 40
0
 40
1
 40
1
 40
1
 10
46.8507
 20
5.77219
 30
0
 10
47.1231
 20
5.39406
 30
0
 10
47.5227
 20
5.39406
 30
0
  0
SPLINE
  5
A9A
330
A02
100
AcDbEntity
  8
ShapeString
100
AcDbSpline
210
0
220
0
230
1
 70
8
 71
2
 72
6
 73
3
 74
0
 40
0
 40
0
 40
0
 40
1
 40
1
 40
1
 10
49.6221
 20
7.30828
 30
0
 10
49.6221
 20
8.13907
 30
0
 10
49.7932
 20
8.64883
 30
0
  0
SPLINE
  5
A9B
330
A02
100
AcDbEntity
  8
ShapeString
100
AcDbSpline
210
0
220
0
230
1
 70
8
 71
2
 72
6
 73
3
 74
0
 40
0
 40
0
 40
0
 40
1
 40
1
 40
1
 10
50.0858
 20
5.39724
 30
0
 10
49.6221
 20
5.98875
 30
0
 10
49.6221
 20
7.30828
 30
0
  0
SPLINE
  5
A9C
330
A02
100
AcDbEntity
  8
ShapeString
100
AcDbSpline
210
0
220
0
230
1
 70
8
 71
2
 72
6
 73
3
 74
0
 40
0
 40
0
 40
0
 40
1
 40
1
 40
1
 10
51.1507
 20
4.91847
 30
0
 10
50.4728
 20
4.91847
 30
0
 10
50.0858
 20
5.39724
 30
0
  0
SPLINE
  5
A9D
330
A02
100
AcDbEntity
  8
ShapeString
100
AcDbSpline
210
0
220
0
230
1
 70
8
 71
2
 72
6
 73
3
 74
0
 40
0
 40
0
 40
0
 40
1
 40
1
 40
1
 10
52.003
 20
5.1913
 30
0
 10
51.6656
 20
4.91847
 30
0
 10
51.1507
 20
4.91847
 30
0
  0
SPLINE
  5
A9E
330
A02
100
AcDbEntity
  8
ShapeString
100
AcDbSpline
210
0
220
0
230
1
 70
8
 71
2
 72
6
 73
3
 74
0
 40
0
 40
0
 40
0
 40
1
 40
1
 40
1
 10
52.5098
 20
5.9741
 30
0
 10
52.3403
 20
5.46433
 30
0
 10
52.003
 20
5.1913
 30
0
  0
SPLINE
  5
A9F
330
A02
100
AcDbEntity
  8
ShapeString
100
AcDbSpline
210
0
220
0
230
1
 70
8
 71
2
 72
6
 73
3
 74
0
 40
0
 40
0
 40
0
 40
1
 40
1
 40
1
 10
52.6794
 20
7.30828
 30
0
 10
52.6794
 20
6.48408
 30
0
 10
52.5098
 20
5.9741
 30
0
  0
SPLINE
  5
AA0
330
A02
100
AcDbEntity
  8
ShapeString
100
AcDbSpline
210
0
220
0
230
1
 70
8
 71
2
 72
6
 73
3
 74
0
 40
0
 40
0
 40
0
 40
1
 40
1
 40
1
 10
52.5739
 20
8.4155
 30
0
 10
52.6794
 20
8.00488
 30
0
 10
52.6794
 20
7.30828
 30
0
  0
SPLINE
  5
AA1
330
A02
100
AcDbEntity
  8
ShapeString
100
AcDbSpline
210
0
220
0
230
1
 70
8
 71
2
 72
6
 73
3
 74
0
 40
0
 40
0
 40
0
 40
1
 40
1
 40
1
 10
52.2862
 20
9.11189
 30
0
 10
52.4684
 20
8.82611
 30
0
 10
52.5739
 20
8.4155
 30
0
  0
SPLINE
  5
AA2
330
A02
100
AcDbEntity
  8
ShapeString
100
AcDbSpline
210
0
220
0
230
1
 70
8
 71
2
 72
6
 73
3
 74
0
 40
0
 40
0
 40
0
 40
1
 40
1
 40
1
 10
51.8161
 20
9.54968
 30
0
 10
52.1042
 20
9.39788
 30
0
 10
52.2862
 20
9.11189
 30
0
  0
SPLINE
  5
AA3
330
A02
100
AcDbEntity
  8
ShapeString
100
AcDbSpline
210
0
220
0
230
1
 70
8
 71
2
 72
6
 73
3
 74
0
 40
0
 40
0
 40
0
 40
1
 40
1
 40
1
 10
51.1507
 20
9.70149
 30
0
 10
51.528
 20
9.70149
 30
0
 10
51.8161
 20
9.54968
 30
0
  0
SPLINE
  5
AA4
330
A02
100
AcDbEntity
  8
ShapeString
100
AcDbSpline
210
0
220
0
230
1
 70
8
 71
2
 72
6
 73
3
 74
0
 40
0
 40
0
 40
0
 40
1
 40
1
 40
1
 10
50.3017
 20
9.43015
 30
0
 10
50.6391
 20
9.70149
 30
0
 10
51.1507
 20
9.70149
 30
0
  0
SPLINE
  5
AA5
330
A02
100
AcDbEntity
  8
ShapeString
100
AcDbSpline
210
0
220
0
230
1
 70
8
 71
2
 72
6
 73
3
 74
0
 40
0
 40
0
 40
0
 40
1
 40
1
 40
1
 10
49.7932
 20
8.64883
 30
0
 10
49.9643
 20
9.15881
 30
0
 10
50.3017
 20
9.43015
 30
0
  0
SPLINE
  5
AA6
330
A02
100
AcDbEntity
  8
ShapeString
100
AcDbSpline
210
0
220
0
230
1
 70
8
 71
2
 72
6
 73
3
 74
0
 40
0
 40
0
 40
0
 40
1
 40
1
 40
1
 10
50.2064
 20
7.30998
 30
0
 10
50.2064
 20
6.15053
 30
0
 10
50.4788
 20
5.77219
 30
0
  0
SPLINE
  5
AA7
330
A02
100
AcDbEntity
  8
ShapeString
100
AcDbSpline
210
0
220
0
230
1
 70
8
 71
2
 72
6
 73
3
 74
0
 40
0
 40
0
 40
0
 40
1
 40
1
 40
1
 10
50.5028
 20
8.89066
 30
0
 10
50.2064
 20
8.46263
 30
0
 10
50.2064
 20
7.30998
 30
0
  0
SPLINE
  5
AA8
330
A02
100
AcDbEntity
  8
ShapeString
100
AcDbSpline
210
0
220
0
230
1
 70
8
 71
2
 72
6
 73
3
 74
0
 40
0
 40
0
 40
0
 40
1
 40
1
 40
1
 10
51.1444
 20
9.2259
 30
0
 10
50.7446
 20
9.2259
 30
0
 10
50.5028
 20
8.89066
 30
0
  0
SPLINE
  5
AA9
330
A02
100
AcDbEntity
  8
ShapeString
100
AcDbSpline
210
0
220
0
230
1
 70
8
 71
2
 72
6
 73
3
 74
0
 40
0
 40
0
 40
0
 40
1
 40
1
 40
1
 10
51.8244
 20
8.84586
 30
0
 10
51.5537
 20
9.2259
 30
0
 10
51.1444
 20
9.2259
 30
0
  0
SPLINE
  5
AAA
330
A02
100
AcDbEntity
  8
ShapeString
100
AcDbSpline
210
0
220
0
230
1
 70
8
 71
2
 72
6
 73
3
 74
0
 40
0
 40
0
 40
0
 40
1
 40
1
 40
1
 10
52.0951
 20
7.30998
 30
0
 10
52.0951
 20
8.46582
 30
0
 10
51.8244
 20
8.84586
 30
0
  0
SPLINE
  5
AAB
330
A02
100
AcDbEntity
  8
ShapeString
100
AcDbSpline
210
0
220
0
230
1
 70
8
 71
2
 72
6
 73
3
 74
0
 40
0
 40
0
 40
0
 40
1
 40
1
 40
1
 10
51.8227
 20
5.77389
 30
0
 10
52.0951
 20
6.15372
 30
0
 10
52.0951
 20
7.30998
 30
0
  0
SPLINE
  5
AAC
330
A02
100
AcDbEntity
  8
ShapeString
100
AcDbSpline
210
0
220
0
230
1
 70
8
 71
2
 72
6
 73
3
 74
0
 40
0
 40
0
 40
0
 40
1
 40
1
 40
1
 10
51.1507
 20
5.39406
 30
0
 10
51.5503
 20
5.39406
 30
0
 10
51.8227
 20
5.77389
 30
0
  0
SPLINE
  5
AAD
330
A02
100
AcDbEntity
  8
ShapeString
100
AcDbSpline
210
0
220
0
230
1
 70
8
 71
2
 72
6
 73
3
 74
0
 40
0
 40
0
 40
0
 40
1
 40
1
 40
1
 10
50.4788
 20
5.77219
 30
0
 10
50.7512
 20
5.39406
 30
0
 10
51.1507
 20
5.39406
 30
0
  0
SPLINE
  5
AAE
330
A02
100
AcDbEntity
  8
ShapeString
100
AcDbSpline
210
0
220
0
230
1
 70
8
 71
2
 72
6
 73
3
 74
0
 40
0
 40
0
 40
0
 40
1
 40
1
 40
1
 10
53.2501
 20
7.30828
 30
0
 10
53.2501
 20
8.13907
 30
0
 10
53.4212
 20
8.64883
 30
0
  0
SPLINE
  5
AAF
330
A02
100
AcDbEntity
  8
ShapeString
100
AcDbSpline
210
0
220
0
230
1
 70
8
 71
2
 72
6
 73
3
 74
0
 40
0
 40
0
 40
0
 40
1
 40
1
 40
1
 10
53.7138
 20
5.39724
 30
0
 10
53.2501
 20
5.98875
 30
0
 10
53.2501
 20
7.30828
 30
0
  0
SPLINE
  5
AB0
330
A02
100
AcDbEntity
  8
ShapeString
100
AcDbSpline
210
0
220
0
230
1
 70
8
 71
2
 72
6
 73
3
 74
0
 40
0
 40
0
 40
0
 40
1
 40
1
 40
1
 10
54.7788
 20
4.91847
 30
0
 10
54.1008
 20
4.91847
 30
0
 10
53.7138
 20
5.39724
 30
0
  0
SPLINE
  5
AB1
330
A02
100
AcDbEntity
  8
ShapeString
100
AcDbSpline
210
0
220
0
230
1
 70
8
 71
2
 72
6
 73
3
 74
0
 40
0
 40
0
 40
0
 40
1
 40
1
 40
1
 10
55.631
 20
5.1913
 30
0
 10
55.2936
 20
4.91847
 30
0
 10
54.7788
 20
4.91847
 30
0
  0
SPLINE
  5
AB2
330
A02
100
AcDbEntity
  8
ShapeString
100
AcDbSpline
210
0
220
0
230
1
 70
8
 71
2
 72
6
 73
3
 74
0
 40
0
 40
0
 40
0
 40
1
 40
1
 40
1
 10
56.1378
 20
5.9741
 30
0
 10
55.9684
 20
5.46433
 30
0
 10
55.631
 20
5.1913
 30
0
  0
SPLINE
  5
AB3
330
A02
100
AcDbEntity
  8
ShapeString
100
AcDbSpline
210
0
220
0
230
1
 70
8
 71
2
 72
6
 73
3
 74
0
 40
0
 40
0
 40
0
 40
1
 40
1
 40
1
 10
56.3074
 20
7.30828
 30
0
 10
56.3074
 20
6.48408
 30
0
 10
56.1378
 20
5.9741
 30
0
  0
SPLINE
  5
AB4
330
A02
100
AcDbEntity
  8
ShapeString
100
AcDbSpline
210
0
220
0
230
1
 70
8
 71
2
 72
6
 73
3
 74
0
 40
0
 40
0
 40
0
 40
1
 40
1
 40
1
 10
56.2019
 20
8.4155
 30
0
 10
56.3074
 20
8.00488
 30
0
 10
56.3074
 20
7.30828
 30
0
  0
SPLINE
  5
AB5
330
A02
100
AcDbEntity
  8
ShapeString
100
AcDbSpline
210
0
220
0
230
1
 70
8
 71
2
 72
6
 73
3
 74
0
 40
0
 40
0
 40
0
 40
1
 40
1
 40
1
 10
55.9142
 20
9.11189
 30
0
 10
56.0964
 20
8.82611
 30
0
 10
56.2019
 20
8.4155
 30
0
  0
SPLINE
  5
AB6
330
A02
100
AcDbEntity
  8
ShapeString
100
AcDbSpline
210
0
220
0
230
1
 70
8
 71
2
 72
6
 73
3
 74
0
 40
0
 40
0
 40
0
 40
1
 40
1
 40
1
 10
55.4442
 20
9.54968
 30
0
 10
55.7323
 20
9.39788
 30
0
 10
55.9142
 20
9.11189
 30
0
  0
SPLINE
  5
AB7
330
A02
100
AcDbEntity
  8
ShapeString
100
AcDbSpline
210
0
220
0
230
1
 70
8
 71
2
 72
6
 73
3
 74
0
 40
0
 40
0
 40
0
 40
1
 40
1
 40
1
 10
54.7788
 20
9.70149
 30
0
 10
55.1561
 20
9.70149
 30
0
 10
55.4442
 20
9.54968
 30
0
  0
SPLINE
  5
AB8
330
A02
100
AcDbEntity
  8
ShapeString
100
AcDbSpline
210
0
220
0
230
1
 70
8
 71
2
 72
6
 73
3
 74
0
 40
0
 40
0
 40
0
 40
1
 40
1
 40
1
 10
53.9297
 20
9.43015
 30
0
 10
54.2671
 20
9.70149
 30
0
 10
54.7788
 20
9.70149
 30
0
  0
SPLINE
  5
AB9
330
A02
100
AcDbEntity
  8
ShapeString
100
AcDbSpline
210
0
220
0
230
1
 70
8
 71
2
 72
6
 73
3
 74
0
 40
0
 40
0
 40
0
 40
1
 40
1
 40
1
 10
53.4212
 20
8.64883
 30
0
 10
53.5924
 20
9.15881
 30
0
 10
53.9297
 20
9.43015
 30
0
  0
SPLINE
  5
ABA
330
A02
100
AcDbEntity
  8
ShapeString
100
AcDbSpline
210
0
220
0
230
1
 70
8
 71
2
 72
6
 73
3
 74
0
 40
0
 40
0
 40
0
 40
1
 40
1
 40
1
 10
53.8344
 20
7.30998
 30
0
 10
53.8344
 20
6.15053
 30
0
 10
54.1068
 20
5.77219
 30
0
  0
SPLINE
  5
ABB
330
A02
100
AcDbEntity
  8
ShapeString
100
AcDbSpline
210
0
220
0
230
1
 70
8
 71
2
 72
6
 73
3
 74
0
 40
0
 40
0
 40
0
 40
1
 40
1
 40
1
 10
54.1308
 20
8.89066
 30
0
 10
53.8344
 20
8.46263
 30
0
 10
53.8344
 20
7.30998
 30
0
  0
SPLINE
  5
ABC
330
A02
100
AcDbEntity
  8
ShapeString
100
AcDbSpline
210
0
220
0
230
1
 70
8
 71
2
 72
6
 73
3
 74
0
 40
0
 40
0
 40
0
 40
1
 40
1
 40
1
 10
54.7724
 20
9.2259
 30
0
 10
54.3726
 20
9.2259
 30
0
 10
54.1308
 20
8.89066
 30
0
  0
SPLINE
  5
ABD
330
A02
100
AcDbEntity
  8
ShapeString
100
AcDbSpline
210
0
220
0
230
1
 70
8
 71
2
 72
6
 73
3
 74
0
 40
0
 40
0
 40
0
 40
1
 40
1
 40
1
 10
55.4524
 20
8.84586
 30
0
 10
55.1817
 20
9.2259
 30
0
 10
54.7724
 20
9.2259
 30
0
  0
SPLINE
  5
ABE
330
A02
100
AcDbEntity
  8
ShapeString
100
AcDbSpline
210
0
220
0
230
1
 70
8
 71
2
 72
6
 73
3
 74
0
 40
0
 40
0
 40
0
 40
1
 40
1
 40
1
 10
55.7231
 20
7.30998
 30
0
 10
55.7231
 20
8.46582
 30
0
 10
55.4524
 20
8.84586
 30
0
  0
SPLINE
  5
ABF
330
A02
100
AcDbEntity
  8
ShapeString
100
AcDbSpline
210
0
220
0
230
1
 70
8
 71
2
 72
6
 73
3
 74
0
 40
0
 40
0
 40
0
 40
1
 40
1
 40
1
 10
55.4507
 20
5.77389
 30
0
 10
55.7231
 20
6.15372
 30
0
 10
55.7231
 20
7.30998
 30
0
  0
SPLINE
  5
AC0
330
A02
100
AcDbEntity
  8
ShapeString
100
AcDbSpline
210
0
220
0
230
1
 70
8
 71
2
 72
6
 73
3
 74
0
 40
0
 40
0
 40
0
 40
1
 40
1
 40
1
 10
54.7788
 20
5.39406
 30
0
 10
55.1783
 20
5.39406
 30
0
 10
55.4507
 20
5.77389
 30
0
  0
SPLINE
  5
AC1
330
A02
100
AcDbEntity
  8
ShapeString
100
AcDbSpline
210
0
220
0
230
1
 70
8
 71
2
 72
6
 73
3
 74
0
 40
0
 40
0
 40
0
 40
1
 40
1
 40
1
 10
54.1068
 20
5.77219
 30
0
 10
54.3792
 20
5.39406
 30
0
 10
54.7788
 20
5.39406
 30
0
  0
SPLINE
  5
AC2
330
A02
100
AcDbEntity
  8
ShapeString
100
AcDbSpline
210
0
220
0
230
1
 70
8
 71
2
 72
6
 73
3
 74
0
 40
0
 40
0
 40
0
 40
1
 40
1
 40
1
 10
56.8781
 20
7.30828
 30
0
 10
56.8781
 20
8.13907
 30
0
 10
57.0493
 20
8.64883
 30
0
  0
SPLINE
  5
AC3
330
A02
100
AcDbEntity
  8
ShapeString
100
AcDbSpline
210
0
220
0
230
1
 70
8
 71
2
 72
6
 73
3
 74
0
 40
0
 40
0
 40
0
 40
1
 40
1
 40
1
 10
57.3418
 20
5.39724
 30
0
 10
56.8781
 20
5.98875
 30
0
 10
56.8781
 20
7.30828
 30
0
  0
SPLINE
  5
AC4
330
A02
100
AcDbEntity
  8
ShapeString
100
AcDbSpline
210
0
220
0
230
1
 70
8
 71
2
 72
6
 73
3
 74
0
 40
0
 40
0
 40
0
 40
1
 40
1
 40
1
 10
58.4068
 20
4.91847
 30
0
 10
57.7289
 20
4.91847
 30
0
 10
57.3418
 20
5.39724
 30
0
  0
SPLINE
  5
AC5
330
A02
100
AcDbEntity
  8
ShapeString
100
AcDbSpline
210
0
220
0
230
1
 70
8
 71
2
 72
6
 73
3
 74
0
 40
0
 40
0
 40
0
 40
1
 40
1
 40
1
 10
59.259
 20
5.1913
 30
0
 10
58.9217
 20
4.91847
 30
0
 10
58.4068
 20
4.91847
 30
0
  0
SPLINE
  5
AC6
330
A02
100
AcDbEntity
  8
ShapeString
100
AcDbSpline
210
0
220
0
230
1
 70
8
 71
2
 72
6
 73
3
 74
0
 40
0
 40
0
 40
0
 40
1
 40
1
 40
1
 10
59.7658
 20
5.9741
 30
0
 10
59.5964
 20
5.46433
 30
0
 10
59.259
 20
5.1913
 30
0
  0
SPLINE
  5
AC7
330
A02
100
AcDbEntity
  8
ShapeString
100
AcDbSpline
210
0
220
0
230
1
 70
8
 71
2
 72
6
 73
3
 74
0
 40
0
 40
0
 40
0
 40
1
 40
1
 40
1
 10
59.9355
 20
7.30828
 30
0
 10
59.9355
 20
6.48408
 30
0
 10
59.7658
 20
5.9741
 30
0
  0
SPLINE
  5
AC8
330
A02
100
AcDbEntity
  8
ShapeString
100
AcDbSpline
210
0
220
0
230
1
 70
8
 71
2
 72
6
 73
3
 74
0
 40
0
 40
0
 40
0
 40
1
 40
1
 40
1
 10
59.8299
 20
8.4155
 30
0
 10
59.9355
 20
8.00488
 30
0
 10
59.9355
 20
7.30828
 30
0
  0
SPLINE
  5
AC9
330
A02
100
AcDbEntity
  8
ShapeString
100
AcDbSpline
210
0
220
0
230
1
 70
8
 71
2
 72
6
 73
3
 74
0
 40
0
 40
0
 40
0
 40
1
 40
1
 40
1
 10
59.5423
 20
9.11189
 30
0
 10
59.7244
 20
8.82611
 30
0
 10
59.8299
 20
8.4155
 30
0
  0
SPLINE
  5
ACA
330
A02
100
AcDbEntity
  8
ShapeString
100
AcDbSpline
210
0
220
0
230
1
 70
8
 71
2
 72
6
 73
3
 74
0
 40
0
 40
0
 40
0
 40
1
 40
1
 40
1
 10
59.0722
 20
9.54968
 30
0
 10
59.3603
 20
9.39788
 30
0
 10
59.5423
 20
9.11189
 30
0
  0
SPLINE
  5
ACB
330
A02
100
AcDbEntity
  8
ShapeString
100
AcDbSpline
210
0
220
0
230
1
 70
8
 71
2
 72
6
 73
3
 74
0
 40
0
 40
0
 40
0
 40
1
 40
1
 40
1
 10
58.4068
 20
9.70149
 30
0
 10
58.7841
 20
9.70149
 30
0
 10
59.0722
 20
9.54968
 30
0
  0
SPLINE
  5
ACC
330
A02
100
AcDbEntity
  8
ShapeString
100
AcDbSpline
210
0
220
0
230
1
 70
8
 71
2
 72
6
 73
3
 74
0
 40
0
 40
0
 40
0
 40
1
 40
1
 40
1
 10
57.5577
 20
9.43015
 30
0
 10
57.8951
 20
9.70149
 30
0
 10
58.4068
 20
9.70149
 30
0
  0
SPLINE
  5
ACD
330
A02
100
AcDbEntity
  8
ShapeString
100
AcDbSpline
210
0
220
0
230
1
 70
8
 71
2
 72
6
 73
3
 74
0
 40
0
 40
0
 40
0
 40
1
 40
1
 40
1
 10
57.0493
 20
8.64883
 30
0
 10
57.2204
 20
9.15881
 30
0
 10
57.5577
 20
9.43015
 30
0
  0
SPLINE
  5
ACE
330
A02
100
AcDbEntity
  8
ShapeString
100
AcDbSpline
210
0
220
0
230
1
 70
8
 71
2
 72
6
 73
3
 74
0
 40
0
 40
0
 40
0
 40
1
 40
1
 40
1
 10
57.4624
 20
7.30998
 30
0
 10
57.4624
 20
6.15053
 30
0
 10
57.7348
 20
5.77219
 30
0
  0
SPLINE
  5
ACF
330
A02
100
AcDbEntity
  8
ShapeString
100
AcDbSpline
210
0
220
0
230
1
 70
8
 71
2
 72
6
 73
3
 74
0
 40
0
 40
0
 40
0
 40
1
 40
1
 40
1
 10
57.7588
 20
8.89066
 30
0
 10
57.4624
 20
8.46263
 30
0
 10
57.4624
 20
7.30998
 30
0
  0
SPLINE
  5
AD0
330
A02
100
AcDbEntity
  8
ShapeString
100
AcDbSpline
210
0
220
0
230
1
 70
8
 71
2
 72
6
 73
3
 74
0
 40
0
 40
0
 40
0
 40
1
 40
1
 40
1
 10
58.4004
 20
9.2259
 30
0
 10
58.0006
 20
9.2259
 30
0
 10
57.7588
 20
8.89066
 30
0
  0
SPLINE
  5
AD1
330
A02
100
AcDbEntity
  8
ShapeString
100
AcDbSpline
210
0
220
0
230
1
 70
8
 71
2
 72
6
 73
3
 74
0
 40
0
 40
0
 40
0
 40
1
 40
1
 40
1
 10
59.0805
 20
8.84586
 30
0
 10
58.8098
 20
9.2259
 30
0
 10
58.4004
 20
9.2259
 30
0
  0
SPLINE
  5
AD2
330
A02
100
AcDbEntity
  8
ShapeString
100
AcDbSpline
210
0
220
0
230
1
 70
8
 71
2
 72
6
 73
3
 74
0
 40
0
 40
0
 40
0
 40
1
 40
1
 40
1
 10
59.3512
 20
7.30998
 30
0
 10
59.3512
 20
8.46582
 30
0
 10
59.0805
 20
8.84586
 30
0
  0
SPLINE
  5
AD3
330
A02
100
AcDbEntity
  8
ShapeString
100
AcDbSpline
210
0
220
0
230
1
 70
8
 71
2
 72
6
 73
3
 74
0
 40
0
 40
0
 40
0
 40
1
 40
1
 40
1
 10
59.0788
 20
5.77389
 30
0
 10
59.3512
 20
6.15372
 30
0
 10
59.3512
 20
7.30998
 30
0
  0
SPLINE
  5
AD4
330
A02
100
AcDbEntity
  8
ShapeString
100
AcDbSpline
210
0
220
0
230
1
 70
8
 71
2
 72
6
 73
3
 74
0
 40
0
 40
0
 40
0
 40
1
 40
1
 40
1
 10
58.4068
 20
5.39406
 30
0
 10
58.8064
 20
5.39406
 30
0
 10
59.0788
 20
5.77389
 30
0
  0
SPLINE
  5
AD5
330
A02
100
AcDbEntity
  8
ShapeString
100
AcDbSpline
210
0
220
0
230
1
 70
8
 71
2
 72
6
 73
3
 74
0
 40
0
 40
0
 40
0
 40
1
 40
1
 40
1
 10
57.7348
 20
5.77219
 30
0
 10
58.0072
 20
5.39406
 30
0
 10
58.4068
 20
5.39406
 30
0
  0
LINE
  5
AD6
330
A02
100
AcDbEntity
  8
ShapeString
100
AcDbLine
 10
62.6667
 20
5
 30
0
 11
62.096
 21
5
 31
0
  0
LINE
  5
AD7
330
A02
100
AcDbEntity
  8
ShapeString
100
AcDbLine
 10
62.6667
 20
9.70149
 30
0
 11
62.6667
 21
5
 31
0
  0
LINE
  5
AD8
330
A02
100
AcDbEntity
  8
ShapeString
100
AcDbLine
 10
62.2989
 20
9.70149
 30
0
 11
62.6667
 21
9.70149
 31
0
  0
SPLINE
  5
AD9
330
A02
100
AcDbEntity
  8
ShapeString
100
AcDbSpline
210
0
220
0
230
1
 70
8
 71
2
 72
6
 73
3
 74
0
 40
0
 40
0
 40
0
 40
1
 40
1
 40
1
 10
61.7864
 20
9.07537
 30
0
 10
62.1484
 20
9.39809
 30
0
 10
62.2989
 20
9.70149
 30
0
  0
SPLINE
  5
ADA
330
A02
100
AcDbEntity
  8
ShapeString
100
AcDbSpline
210
0
220
0
230
1
 70
8
 71
2
 72
6
 73
3
 74
0
 40
0
 40
0
 40
0
 40
1
 40
1
 40
1
 10
60.941
 20
8.52611
 30
0
 10
61.4246
 20
8.75287
 30
0
 10
61.7864
 20
9.07537
 30
0
  0
LINE
  5
ADB
330
A02
100
AcDbEntity
  8
ShapeString
100
AcDbLine
 10
60.941
 20
7.97028
 30
0
 11
60.941
 21
8.52611
 31
0
  0
SPLINE
  5
ADC
330
A02
100
AcDbEntity
  8
ShapeString
100
AcDbSpline
210
0
220
0
230
1
 70
8
 71
2
 72
6
 73
3
 74
0
 40
0
 40
0
 40
0
 40
1
 40
1
 40
1
 10
61.5488
 20
8.2673
 30
0
 10
61.2104
 20
8.06921
 30
0
 10
60.941
 20
7.97028
 30
0
  0
SPLINE
  5
ADD
330
A02
100
AcDbEntity
  8
ShapeString
100
AcDbSpline
210
0
220
0
230
1
 70
8
 71
2
 72
6
 73
3
 74
0
 40
0
 40
0
 40
0
 40
1
 40
1
 40
1
 10
62.096
 20
8.66348
 30
0
 10
61.8875
 20
8.46539
 30
0
 10
61.5488
 20
8.2673
 30
0
  0
LINE
  5
ADE
330
A02
100
AcDbEntity
  8
ShapeString
100
AcDbLine
 10
62.096
 20
5
 30
0
 11
62.096
 21
8.66348
 31
0
  0
LINE
  5
ADF
330
A02
100
AcDbEntity
  8
ShapeString
100
AcDbLine
 10
68.1019
 20
5
 30
0
 11
67.5312
 21
5
 31
0
  0
LINE
  5
AE0
330
A02
100
AcDbEntity
  8
ShapeString
100
AcDbLine
 10
68.1019
 20
9.70149
 30
0
 11
68.1019
 21
5
 31
0
  0
LINE
  5
AE1
330
A02
100
AcDbEntity
  8
ShapeString
100
AcDbLine
 10
67.7342
 20
9.70149
 30
0
 11
68.1019
 21
9.70149
 31
0
  0
SPLINE
  5
AE2
330
A02
100
AcDbEntity
  8
ShapeString
100
AcDbSpline
210
0
220
0
230
1
 70
8
 71
2
 72
6
 73
3
 74
0
 40
0
 40
0
 40
0
 40
1
 40
1
 40
1
 10
67.2217
 20
9.07537
 30
0
 10
67.5837
 20
9.39809
 30
0
 10
67.7342
 20
9.70149
 30
0
  0
SPLINE
  5
AE3
330
A02
100
AcDbEntity
  8
ShapeString
100
AcDbSpline
210
0
220
0
230
1
 70
8
 71
2
 72
6
 73
3
 74
0
 40
0
 40
0
 40
0
 40
1
 40
1
 40
1
 10
66.3762
 20
8.52611
 30
0
 10
66.8599
 20
8.75287
 30
0
 10
67.2217
 20
9.07537
 30
0
  0
LINE
  5
AE4
330
A02
100
AcDbEntity
  8
ShapeString
100
AcDbLine
 10
66.3762
 20
7.97028
 30
0
 11
66.3762
 21
8.52611
 31
0
  0
SPLINE
  5
AE5
330
A02
100
AcDbEntity
  8
ShapeString
100
AcDbSpline
210
0
220
0
230
1
 70
8
 71
2
 72
6
 73
3
 74
0
 40
0
 40
0
 40
0
 40
1
 40
1
 40
1
 10
66.9841
 20
8.2673
 30
0
 10
66.6456
 20
8.06921
 30
0
 10
66.3762
 20
7.97028
 30
0
  0
SPLINE
  5
AE6
330
A02
100
AcDbEntity
  8
ShapeString
100
AcDbSpline
210
0
220
0
230
1
 70
8
 71
2
 72
6
 73
3
 74
0
 40
0
 40
0
 40
0
 40
1
 40
1
 40
1
 10
67.5312
 20
8.66348
 30
0
 10
67.3227
 20
8.46539
 30
0
 10
66.9841
 20
8.2673
 30
0
  0
LINE
  5
AE7
330
A02
100
AcDbEntity
  8
ShapeString
100
AcDbLine
 10
67.5312
 20
5
 30
0
 11
67.5312
 21
8.66348
 31
0
  0
SPLINE
  5
AE8
330
A02
100
AcDbEntity
  8
ShapeString
100
AcDbSpline
210
0
220
0
230
1
 70
8
 71
2
 72
6
 73
3
 74
0
 40
0
 40
0
 40
0
 40
1
 40
1
 40
1
 10
69.5694
 20
7.30828
 30
0
 10
69.5694
 20
8.13907
 30
0
 10
69.7406
 20
8.64883
 30
0
  0
SPLINE
  5
AE9
330
A02
100
AcDbEntity
  8
ShapeString
100
AcDbSpline
210
0
220
0
230
1
 70
8
 71
2
 72
6
 73
3
 74
0
 40
0
 40
0
 40
0
 40
1
 40
1
 40
1
 10
70.0331
 20
5.39724
 30
0
 10
69.5694
 20
5.98875
 30
0
 10
69.5694
 20
7.30828
 30
0
  0
SPLINE
  5
AEA
330
A02
100
AcDbEntity
  8
ShapeString
100
AcDbSpline
210
0
220
0
230
1
 70
8
 71
2
 72
6
 73
3
 74
0
 40
0
 40
0
 40
0
 40
1
 40
1
 40
1
 10
71.0981
 20
4.91847
 30
0
 10
70.4202
 20
4.91847
 30
0
 10
70.0331
 20
5.39724
 30
0
  0
SPLINE
  5
AEB
330
A02
100
AcDbEntity
  8
ShapeString
100
AcDbSpline
210
0
220
0
230
1
 70
8
 71
2
 72
6
 73
3
 74
0
 40
0
 40
0
 40
0
 40
1
 40
1
 40
1
 10
71.9503
 20
5.1913
 30
0
 10
71.613
 20
4.91847
 30
0
 10
71.0981
 20
4.91847
 30
0
  0
SPLINE
  5
AEC
330
A02
100
AcDbEntity
  8
ShapeString
100
AcDbSpline
210
0
220
0
230
1
 70
8
 71
2
 72
6
 73
3
 74
0
 40
0
 40
0
 40
0
 40
1
 40
1
 40
1
 10
72.4571
 20
5.9741
 30
0
 10
72.2877
 20
5.46433
 30
0
 10
71.9503
 20
5.1913
 30
0
  0
SPLINE
  5
AED
330
A02
100
AcDbEntity
  8
ShapeString
100
AcDbSpline
210
0
220
0
230
1
 70
8
 71
2
 72
6
 73
3
 74
0
 40
0
 40
0
 40
0
 40
1
 40
1
 40
1
 10
72.6268
 20
7.30828
 30
0
 10
72.6268
 20
6.48408
 30
0
 10
72.4571
 20
5.9741
 30
0
  0
SPLINE
  5
AEE
330
A02
100
AcDbEntity
  8
ShapeString
100
AcDbSpline
210
0
220
0
230
1
 70
8
 71
2
 72
6
 73
3
 74
0
 40
0
 40
0
 40
0
 40
1
 40
1
 40
1
 10
72.5212
 20
8.4155
 30
0
 10
72.6268
 20
8.00488
 30
0
 10
72.6268
 20
7.30828
 30
0
  0
SPLINE
  5
AEF
330
A02
100
AcDbEntity
  8
ShapeString
100
AcDbSpline
210
0
220
0
230
1
 70
8
 71
2
 72
6
 73
3
 74
0
 40
0
 40
0
 40
0
 40
1
 40
1
 40
1
 10
72.2335
 20
9.11189
 30
0
 10
72.4157
 20
8.82611
 30
0
 10
72.5212
 20
8.4155
 30
0
  0
SPLINE
  5
AF0
330
A02
100
AcDbEntity
  8
ShapeString
100
AcDbSpline
210
0
220
0
230
1
 70
8
 71
2
 72
6
 73
3
 74
0
 40
0
 40
0
 40
0
 40
1
 40
1
 40
1
 10
71.7635
 20
9.54968
 30
0
 10
72.0516
 20
9.39788
 30
0
 10
72.2335
 20
9.11189
 30
0
  0
SPLINE
  5
AF1
330
A02
100
AcDbEntity
  8
ShapeString
100
AcDbSpline
210
0
220
0
230
1
 70
8
 71
2
 72
6
 73
3
 74
0
 40
0
 40
0
 40
0
 40
1
 40
1
 40
1
 10
71.0981
 20
9.70149
 30
0
 10
71.4754
 20
9.70149
 30
0
 10
71.7635
 20
9.54968
 30
0
  0
SPLINE
  5
AF2
330
A02
100
AcDbEntity
  8
ShapeString
100
AcDbSpline
210
0
220
0
230
1
 70
8
 71
2
 72
6
 73
3
 74
0
 40
0
 40
0
 40
0
 40
1
 40
1
 40
1
 10
70.249
 20
9.43015
 30
0
 10
70.5864
 20
9.70149
 30
0
 10
71.0981
 20
9.70149
 30
0
  0
SPLINE
  5
AF3
330
A02
100
AcDbEntity
  8
ShapeString
100
AcDbSpline
210
0
220
0
230
1
 70
8
 71
2
 72
6
 73
3
 74
0
 40
0
 40
0
 40
0
 40
1
 40
1
 40
1
 10
69.7406
 20
8.64883
 30
0
 10
69.9117
 20
9.15881
 30
0
 10
70.249
 20
9.43015
 30
0
  0
SPLINE
  5
AF4
330
A02
100
AcDbEntity
  8
ShapeString
100
AcDbSpline
210
0
220
0
230
1
 70
8
 71
2
 72
6
 73
3
 74
0
 40
0
 40
0
 40
0
 40
1
 40
1
 40
1
 10
70.1537
 20
7.30998
 30
0
 10
70.1537
 20
6.15053
 30
0
 10
70.4261
 20
5.77219
 30
0
  0
SPLINE
  5
AF5
330
A02
100
AcDbEntity
  8
ShapeString
100
AcDbSpline
210
0
220
0
230
1
 70
8
 71
2
 72
6
 73
3
 74
0
 40
0
 40
0
 40
0
 40
1
 40
1
 40
1
 10
70.4501
 20
8.89066
 30
0
 10
70.1537
 20
8.46263
 30
0
 10
70.1537
 20
7.30998
 30
0
  0
SPLINE
  5
AF6
330
A02
100
AcDbEntity
  8
ShapeString
100
AcDbSpline
210
0
220
0
230
1
 70
8
 71
2
 72
6
 73
3
 74
0
 40
0
 40
0
 40
0
 40
1
 40
1
 40
1
 10
71.0917
 20
9.2259
 30
0
 10
70.6919
 20
9.2259
 30
0
 10
70.4501
 20
8.89066
 30
0
  0
SPLINE
  5
AF7
330
A02
100
AcDbEntity
  8
ShapeString
100
AcDbSpline
210
0
220
0
230
1
 70
8
 71
2
 72
6
 73
3
 74
0
 40
0
 40
0
 40
0
 40
1
 40
1
 40
1
 10
71.7718
 20
8.84586
 30
0
 10
71.5011
 20
9.2259
 30
0
 10
71.0917
 20
9.2259
 30
0
  0
SPLINE
  5
AF8
330
A02
100
AcDbEntity
  8
ShapeString
100
AcDbSpline
210
0
220
0
230
1
 70
8
 71
2
 72
6
 73
3
 74
0
 40
0
 40
0
 40
0
 40
1
 40
1
 40
1
 10
72.0425
 20
7.30998
 30
0
 10
72.0425
 20
8.46582
 30
0
 10
71.7718
 20
8.84586
 30
0
  0
SPLINE
  5
AF9
330
A02
100
AcDbEntity
  8
ShapeString
100
AcDbSpline
210
0
220
0
230
1
 70
8
 71
2
 72
6
 73
3
 74
0
 40
0
 40
0
 40
0
 40
1
 40
1
 40
1
 10
71.7701
 20
5.77389
 30
0
 10
72.0425
 20
6.15372
 30
0
 10
72.0425
 20
7.30998
 30
0
  0
SPLINE
  5
AFA
330
A02
100
AcDbEntity
  8
ShapeString
100
AcDbSpline
210
0
220
0
230
1
 70
8
 71
2
 72
6
 73
3
 74
0
 40
0
 40
0
 40
0
 40
1
 40
1
 40
1
 10
71.0981
 20
5.39406
 30
0
 10
71.4977
 20
5.39406
 30
0
 10
71.7701
 20
5.77389
 30
0
  0
SPLINE
  5
AFB
330
A02
100
AcDbEntity
  8
ShapeString
100
AcDbSpline
210
0
220
0
230
1
 70
8
 71
2
 72
6
 73
3
 74
0
 40
0
 40
0
 40
0
 40
1
 40
1
 40
1
 10
70.4261
 20
5.77219
 30
0
 10
70.6985
 20
5.39406
 30
0
 10
71.0981
 20
5.39406
 30
0
  0
SPLINE
  5
AFC
330
A02
100
AcDbEntity
  8
ShapeString
100
AcDbSpline
210
0
220
0
230
1
 70
8
 71
2
 72
6
 73
3
 74
0
 40
0
 40
0
 40
0
 40
1
 40
1
 40
1
 10
73.1975
 20
7.30828
 30
0
 10
73.1975
 20
8.13907
 30
0
 10
73.3686
 20
8.64883
 30
0
  0
SPLINE
  5
AFD
330
A02
100
AcDbEntity
  8
ShapeString
100
AcDbSpline
210
0
220
0
230
1
 70
8
 71
2
 72
6
 73
3
 74
0
 40
0
 40
0
 40
0
 40
1
 40
1
 40
1
 10
73.6611
 20
5.39724
 30
0
 10
73.1975
 20
5.98875
 30
0
 10
73.1975
 20
7.30828
 30
0
  0
SPLINE
  5
AFE
330
A02
100
AcDbEntity
  8
ShapeString
100
AcDbSpline
210
0
220
0
230
1
 70
8
 71
2
 72
6
 73
3
 74
0
 40
0
 40
0
 40
0
 40
1
 40
1
 40
1
 10
74.7261
 20
4.91847
 30
0
 10
74.0482
 20
4.91847
 30
0
 10
73.6611
 20
5.39724
 30
0
  0
SPLINE
  5
AFF
330
A02
100
AcDbEntity
  8
ShapeString
100
AcDbSpline
210
0
220
0
230
1
 70
8
 71
2
 72
6
 73
3
 74
0
 40
0
 40
0
 40
0
 40
1
 40
1
 40
1
 10
75.5783
 20
5.1913
 30
0
 10
75.241
 20
4.91847
 30
0
 10
74.7261
 20
4.91847
 30
0
  0
SPLINE
  5
B00
330
A02
100
AcDbEntity
  8
ShapeString
100
AcDbSpline
210
0
220
0
230
1
 70
8
 71
2
 72
6
 73
3
 74
0
 40
0
 40
0
 40
0
 40
1
 40
1
 40
1
 10
76.0851
 20
5.9741
 30
0
 10
75.9157
 20
5.46433
 30
0
 10
75.5783
 20
5.1913
 30
0
  0
SPLINE
  5
B01
330
A02
100
AcDbEntity
  8
ShapeString
100
AcDbSpline
210
0
220
0
230
1
 70
8
 71
2
 72
6
 73
3
 74
0
 40
0
 40
0
 40
0
 40
1
 40
1
 40
1
 10
76.2548
 20
7.30828
 30
0
 10
76.2548
 20
6.48408
 30
0
 10
76.0851
 20
5.9741
 30
0
  0
SPLINE
  5
B02
330
A02
100
AcDbEntity
  8
ShapeString
100
AcDbSpline
210
0
220
0
230
1
 70
8
 71
2
 72
6
 73
3
 74
0
 40
0
 40
0
 40
0
 40
1
 40
1
 40
1
 10
76.1493
 20
8.4155
 30
0
 10
76.2548
 20
8.00488
 30
0
 10
76.2548
 20
7.30828
 30
0
  0
SPLINE
  5
B03
330
A02
100
AcDbEntity
  8
ShapeString
100
AcDbSpline
210
0
220
0
230
1
 70
8
 71
2
 72
6
 73
3
 74
0
 40
0
 40
0
 40
0
 40
1
 40
1
 40
1
 10
75.8616
 20
9.11189
 30
0
 10
76.0437
 20
8.82611
 30
0
 10
76.1493
 20
8.4155
 30
0
  0
SPLINE
  5
B04
330
A02
100
AcDbEntity
  8
ShapeString
100
AcDbSpline
210
0
220
0
230
1
 70
8
 71
2
 72
6
 73
3
 74
0
 40
0
 40
0
 40
0
 40
1
 40
1
 40
1
 10
75.3915
 20
9.54968
 30
0
 10
75.6796
 20
9.39788
 30
0
 10
75.8616
 20
9.11189
 30
0
  0
SPLINE
  5
B05
330
A02
100
AcDbEntity
  8
ShapeString
100
AcDbSpline
210
0
220
0
230
1
 70
8
 71
2
 72
6
 73
3
 74
0
 40
0
 40
0
 40
0
 40
1
 40
1
 40
1
 10
74.7261
 20
9.70149
 30
0
 10
75.1034
 20
9.70149
 30
0
 10
75.3915
 20
9.54968
 30
0
  0
SPLINE
  5
B06
330
A02
100
AcDbEntity
  8
ShapeString
100
AcDbSpline
210
0
220
0
230
1
 70
8
 71
2
 72
6
 73
3
 74
0
 40
0
 40
0
 40
0
 40
1
 40
1
 40
1
 10
73.8771
 20
9.43015
 30
0
 10
74.2144
 20
9.70149
 30
0
 10
74.7261
 20
9.70149
 30
0
  0
SPLINE
  5
B07
330
A02
100
AcDbEntity
  8
ShapeString
100
AcDbSpline
210
0
220
0
230
1
 70
8
 71
2
 72
6
 73
3
 74
0
 40
0
 40
0
 40
0
 40
1
 40
1
 40
1
 10
73.3686
 20
8.64883
 30
0
 10
73.5397
 20
9.15881
 30
0
 10
73.8771
 20
9.43015
 30
0
  0
SPLINE
  5
B08
330
A02
100
AcDbEntity
  8
ShapeString
100
AcDbSpline
210
0
220
0
230
1
 70
8
 71
2
 72
6
 73
3
 74
0
 40
0
 40
0
 40
0
 40
1
 40
1
 40
1
 10
73.7817
 20
7.30998
 30
0
 10
73.7817
 20
6.15053
 30
0
 10
74.0541
 20
5.77219
 30
0
  0
SPLINE
  5
B09
330
A02
100
AcDbEntity
  8
ShapeString
100
AcDbSpline
210
0
220
0
230
1
 70
8
 71
2
 72
6
 73
3
 74
0
 40
0
 40
0
 40
0
 40
1
 40
1
 40
1
 10
74.0781
 20
8.89066
 30
0
 10
73.7817
 20
8.46263
 30
0
 10
73.7817
 20
7.30998
 30
0
  0
SPLINE
  5
B0A
330
A02
100
AcDbEntity
  8
ShapeString
100
AcDbSpline
210
0
220
0
230
1
 70
8
 71
2
 72
6
 73
3
 74
0
 40
0
 40
0
 40
0
 40
1
 40
1
 40
1
 10
74.7197
 20
9.2259
 30
0
 10
74.32
 20
9.2259
 30
0
 10
74.0781
 20
8.89066
 30
0
  0
SPLINE
  5
B0B
330
A02
100
AcDbEntity
  8
ShapeString
100
AcDbSpline
210
0
220
0
230
1
 70
8
 71
2
 72
6
 73
3
 74
0
 40
0
 40
0
 40
0
 40
1
 40
1
 40
1
 10
75.3998
 20
8.84586
 30
0
 10
75.1291
 20
9.2259
 30
0
 10
74.7197
 20
9.2259
 30
0
  0
SPLINE
  5
B0C
330
A02
100
AcDbEntity
  8
ShapeString
100
AcDbSpline
210
0
220
0
230
1
 70
8
 71
2
 72
6
 73
3
 74
0
 40
0
 40
0
 40
0
 40
1
 40
1
 40
1
 10
75.6705
 20
7.30998
 30
0
 10
75.6705
 20
8.46582
 30
0
 10
75.3998
 20
8.84586
 30
0
  0
SPLINE
  5
B0D
330
A02
100
AcDbEntity
  8
ShapeString
100
AcDbSpline
210
0
220
0
230
1
 70
8
 71
2
 72
6
 73
3
 74
0
 40
0
 40
0
 40
0
 40
1
 40
1
 40
1
 10
75.3981
 20
5.77389
 30
0
 10
75.6705
 20
6.15372
 30
0
 10
75.6705
 20
7.30998
 30
0
  0
SPLINE
  5
B0E
330
A02
100
AcDbEntity
  8
ShapeString
100
AcDbSpline
210
0
220
0
230
1
 70
8
 71
2
 72
6
 73
3
 74
0
 40
0
 40
0
 40
0
 40
1
 40
1
 40
1
 10
74.7261
 20
5.39406
 30
0
 10
75.1257
 20
5.39406
 30
0
 10
75.3981
 20
5.77389
 30
0
  0
SPLINE
  5
B0F
330
A02
100
AcDbEntity
  8
ShapeString
100
AcDbSpline
210
0
220
0
230
1
 70
8
 71
2
 72
6
 73
3
 74
0
 40
0
 40
0
 40
0
 40
1
 40
1
 40
1
 10
74.0541
 20
5.77219
 30
0
 10
74.3265
 20
5.39406
 30
0
 10
74.7261
 20
5.39406
 30
0
  0
LINE
  5
B10
330
A02
100
AcDbEntity
  8
ShapeString
100
AcDbLine
 10
79.1898
 20
5
 30
0
 11
79.1898
 21
5.4397
 31
0
  0
LINE
  5
B11
330
A02
100
AcDbEntity
  8
ShapeString
100
AcDbLine
 10
79.7197
 20
5
 30
0
 11
79.1898
 21
5
 31
0
  0
LINE
  5
B12
330
A02
100
AcDbEntity
  8
ShapeString
100
AcDbLine
 10
79.7197
 20
9.67431
 30
0
 11
79.7197
 21
5
 31
0
  0
LINE
  5
B13
330
A02
100
AcDbEntity
  8
ShapeString
100
AcDbLine
 10
79.149
 20
9.67431
 30
0
 11
79.7197
 21
9.67431
 31
0
  0
LINE
  5
B14
330
A02
100
AcDbEntity
  8
ShapeString
100
AcDbLine
 10
79.149
 20
7.98535
 30
0
 11
79.149
 21
9.67431
 31
0
  0
SPLINE
  5
B15
330
A02
100
AcDbEntity
  8
ShapeString
100
AcDbSpline
210
0
220
0
230
1
 70
8
 71
2
 72
6
 73
3
 74
0
 40
0
 40
0
 40
0
 40
1
 40
1
 40
1
 10
78.758
 20
8.32208
 30
0
 10
78.9985
 20
8.19278
 30
0
 10
79.149
 20
7.98535
 30
0
  0
SPLINE
  5
B16
330
A02
100
AcDbEntity
  8
ShapeString
100
AcDbSpline
210
0
220
0
230
1
 70
8
 71
2
 72
6
 73
3
 74
0
 40
0
 40
0
 40
0
 40
1
 40
1
 40
1
 10
78.21
 20
8.45138
 30
0
 10
78.5176
 20
8.45138
 30
0
 10
78.758
 20
8.32208
 30
0
  0
SPLINE
  5
B17
330
A02
100
AcDbEntity
  8
ShapeString
100
AcDbSpline
210
0
220
0
230
1
 70
8
 71
2
 72
6
 73
3
 74
0
 40
0
 40
0
 40
0
 40
1
 40
1
 40
1
 10
77.4505
 20
8.23248
 30
0
 10
77.7902
 20
8.45138
 30
0
 10
78.21
 20
8.45138
 30
0
  0
SPLINE
  5
B18
330
A02
100
AcDbEntity
  8
ShapeString
100
AcDbSpline
210
0
220
0
230
1
 70
8
 71
2
 72
6
 73
3
 74
0
 40
0
 40
0
 40
0
 40
1
 40
1
 40
1
 10
76.941
 20
7.60318
 30
0
 10
77.1108
 20
8.0138
 30
0
 10
77.4505
 20
8.23248
 30
0
  0
SPLINE
  5
B19
330
A02
100
AcDbEntity
  8
ShapeString
100
AcDbSpline
210
0
220
0
230
1
 70
8
 71
2
 72
6
 73
3
 74
0
 40
0
 40
0
 40
0
 40
1
 40
1
 40
1
 10
76.7711
 20
6.68854
 30
0
 10
76.7711
 20
7.19257
 30
0
 10
76.941
 20
7.60318
 30
0
  0
SPLINE
  5
B1A
330
A02
100
AcDbEntity
  8
ShapeString
100
AcDbSpline
210
0
220
0
230
1
 70
8
 71
2
 72
6
 73
3
 74
0
 40
0
 40
0
 40
0
 40
1
 40
1
 40
1
 10
76.9588
 20
5.77389
 30
0
 10
76.7711
 20
6.17176
 30
0
 10
76.7711
 20
6.68854
 30
0
  0
SPLINE
  5
B1B
330
A02
100
AcDbEntity
  8
ShapeString
100
AcDbSpline
210
0
220
0
230
1
 70
8
 71
2
 72
6
 73
3
 74
0
 40
0
 40
0
 40
0
 40
1
 40
1
 40
1
 10
77.4881
 20
5.15393
 30
0
 10
77.1465
 20
5.37601
 30
0
 10
76.9588
 20
5.77389
 30
0
  0
SPLINE
  5
B1C
330
A02
100
AcDbEntity
  8
ShapeString
100
AcDbSpline
210
0
220
0
230
1
 70
8
 71
2
 72
6
 73
3
 74
0
 40
0
 40
0
 40
0
 40
1
 40
1
 40
1
 10
78.2372
 20
4.93206
 30
0
 10
77.8297
 20
4.93206
 30
0
 10
77.4881
 20
5.15393
 30
0
  0
SPLINE
  5
B1D
330
A02
100
AcDbEntity
  8
ShapeString
100
AcDbSpline
210
0
220
0
230
1
 70
8
 71
2
 72
6
 73
3
 74
0
 40
0
 40
0
 40
0
 40
1
 40
1
 40
1
 10
79.1898
 20
5.4397
 30
0
 10
78.8658
 20
4.93206
 30
0
 10
78.2372
 20
4.93206
 30
0
  0
SPLINE
  5
B1E
330
A02
100
AcDbEntity
  8
ShapeString
100
AcDbSpline
210
0
220
0
230
1
 70
8
 71
2
 72
6
 73
3
 74
0
 40
0
 40
0
 40
0
 40
1
 40
1
 40
1
 10
77.3554
 20
6.69023
 30
0
 10
77.3554
 20
6.04565
 30
0
 10
77.6331
 20
5.72654
 30
0
  0
SPLINE
  5
B1F
330
A02
100
AcDbEntity
  8
ShapeString
100
AcDbSpline
210
0
220
0
230
1
 70
8
 71
2
 72
6
 73
3
 74
0
 40
0
 40
0
 40
0
 40
1
 40
1
 40
1
 10
77.6155
 20
7.66624
 30
0
 10
77.3554
 20
7.35669
 30
0
 10
77.3554
 20
6.69023
 30
0
  0
SPLINE
  5
B20
330
A02
100
AcDbEntity
  8
ShapeString
100
AcDbSpline
210
0
220
0
230
1
 70
8
 71
2
 72
6
 73
3
 74
0
 40
0
 40
0
 40
0
 40
1
 40
1
 40
1
 10
78.2633
 20
7.9758
 30
0
 10
77.8756
 20
7.9758
 30
0
 10
77.6155
 20
7.66624
 30
0
  0
SPLINE
  5
B21
330
A02
100
AcDbEntity
  8
ShapeString
100
AcDbSpline
210
0
220
0
230
1
 70
8
 71
2
 72
6
 73
3
 74
0
 40
0
 40
0
 40
0
 40
1
 40
1
 40
1
 10
78.9321
 20
7.6535
 30
0
 10
78.6607
 20
7.9758
 30
0
 10
78.2633
 20
7.9758
 30
0
  0
SPLINE
  5
B22
330
A02
100
AcDbEntity
  8
ShapeString
100
AcDbSpline
210
0
220
0
230
1
 70
8
 71
2
 72
6
 73
3
 74
0
 40
0
 40
0
 40
0
 40
1
 40
1
 40
1
 10
79.2034
 20
6.64268
 30
0
 10
79.2034
 20
7.33142
 30
0
 10
78.9321
 20
7.6535
 30
0
  0
SPLINE
  5
B23
330
A02
100
AcDbEntity
  8
ShapeString
100
AcDbSpline
210
0
220
0
230
1
 70
8
 71
2
 72
6
 73
3
 74
0
 40
0
 40
0
 40
0
 40
1
 40
1
 40
1
 10
78.9367
 20
5.71231
 30
0
 10
79.2034
 20
6.0172
 30
0
 10
79.2034
 20
6.64268
 30
0
  0
SPLINE
  5
B24
330
A02
100
AcDbEntity
  8
ShapeString
100
AcDbSpline
210
0
220
0
230
1
 70
8
 71
2
 72
6
 73
3
 74
0
 40
0
 40
0
 40
0
 40
1
 40
1
 40
1
 10
78.2892
 20
5.40764
 30
0
 10
78.6703
 20
5.40764
 30
0
 10
78.9367
 20
5.71231
 30
0
  0
SPLINE
  5
B25
330
A02
100
AcDbEntity
  8
ShapeString
100
AcDbSpline
210
0
220
0
230
1
 70
8
 71
2
 72
6
 73
3
 74
0
 40
0
 40
0
 40
0
 40
1
 40
1
 40
1
 10
77.6331
 20
5.72654
 30
0
 10
77.911
 20
5.40764
 30
0
 10
78.2892
 20
5.40764
 30
0
  0
LINE
  5
B26
330
A02
100
AcDbEntity
  8
ShapeString
100
AcDbLine
 10
80.2225
 20
5
 30
0
 11
81.4561
 21
6.74501
 31
0
  0
LINE
  5
B27
330
A02
100
AcDbEntity
  8
ShapeString
100
AcDbLine
 10
80.9183
 20
5
 30
0
 11
80.2225
 21
5
 31
0
  0
LINE
  5
B28
330
A02
100
AcDbEntity
  8
ShapeString
100
AcDbLine
 10
81.8278
 20
6.28705
 30
0
 11
80.9183
 21
5
 31
0
  0
LINE
  5
B29
330
A02
100
AcDbEntity
  8
ShapeString
100
AcDbLine
 10
81.9839
 20
6.04161
 30
0
 11
81.8278
 21
6.28705
 31
0
  0
LINE
  5
B2A
330
A02
100
AcDbEntity
  8
ShapeString
100
AcDbLine
 10
82.683
 20
5
 30
0
 11
81.9839
 21
6.04161
 31
0
  0
LINE
  5
B2B
330
A02
100
AcDbEntity
  8
ShapeString
100
AcDbLine
 10
83.3749
 20
5
 30
0
 11
82.683
 21
5
 31
0
  0
LINE
  5
B2C
330
A02
100
AcDbEntity
  8
ShapeString
100
AcDbLine
 10
82.1499
 20
6.74246
 30
0
 11
83.3749
 21
5
 31
0
  0
LINE
  5
B2D
330
A02
100
AcDbEntity
  8
ShapeString
100
AcDbLine
 10
83.3098
 20
8.38344
 30
0
 11
82.1499
 21
6.74246
 31
0
  0
LINE
  5
B2E
330
A02
100
AcDbEntity
  8
ShapeString
100
AcDbLine
 10
82.614
 20
8.38344
 30
0
 11
83.3098
 21
8.38344
 31
0
  0
LINE
  5
B2F
330
A02
100
AcDbEntity
  8
ShapeString
100
AcDbLine
 10
82.0493
 20
7.58408
 30
0
 11
82.614
 21
8.38344
 31
0
  0
SPLINE
  5
B30
330
A02
100
AcDbEntity
  8
ShapeString
100
AcDbSpline
210
0
220
0
230
1
 70
8
 71
2
 72
6
 73
3
 74
0
 40
0
 40
0
 40
0
 40
1
 40
1
 40
1
 10
81.7777
 20
7.20042
 30
0
 10
81.9333
 20
7.42038
 30
0
 10
82.0493
 20
7.58408
 30
0
  0
SPLINE
  5
B31
330
A02
100
AcDbEntity
  8
ShapeString
100
AcDbSpline
210
0
220
0
230
1
 70
8
 71
2
 72
6
 73
3
 74
0
 40
0
 40
0
 40
0
 40
1
 40
1
 40
1
 10
81.5444
 20
7.57983
 30
0
 10
81.6881
 20
7.3518
 30
0
 10
81.7777
 20
7.20042
 30
0
  0
LINE
  5
B32
330
A02
100
AcDbEntity
  8
ShapeString
100
AcDbLine
 10
80.996
 20
8.38344
 30
0
 11
81.5444
 21
7.57983
 31
0
  0
LINE
  5
B33
330
A02
100
AcDbEntity
  8
ShapeString
100
AcDbLine
 10
80.304
 20
8.38344
 30
0
 11
80.996
 21
8.38344
 31
0
  0
LINE
  5
B34
330
A02
100
AcDbEntity
  8
ShapeString
100
AcDbLine
 10
81.4561
 20
6.74501
 30
0
 11
80.304
 21
8.38344
 31
0
  0
LINE
  5
B35
330
A02
100
AcDbEntity
  8
ShapeString
100
AcDbLine
 10
87.6552
 20
5
 30
0
 11
87.0845
 21
5
 31
0
  0
LINE
  5
B36
330
A02
100
AcDbEntity
  8
ShapeString
100
AcDbLine
 10
87.6552
 20
9.70149
 30
0
 11
87.6552
 21
5
 31
0
  0
LINE
  5
B37
330
A02
100
AcDbEntity
  8
ShapeString
100
AcDbLine
 10
87.2875
 20
9.70149
 30
0
 11
87.6552
 21
9.70149
 31
0
  0
SPLINE
  5
B38
330
A02
100
AcDbEntity
  8
ShapeString
100
AcDbSpline
210
0
220
0
230
1
 70
8
 71
2
 72
6
 73
3
 74
0
 40
0
 40
0
 40
0
 40
1
 40
1
 40
1
 10
86.7749
 20
9.07537
 30
0
 10
87.1369
 20
9.39809
 30
0
 10
87.2875
 20
9.70149
 30
0
  0
SPLINE
  5
B39
330
A02
100
AcDbEntity
  8
ShapeString
100
AcDbSpline
210
0
220
0
230
1
 70
8
 71
2
 72
6
 73
3
 74
0
 40
0
 40
0
 40
0
 40
1
 40
1
 40
1
 10
85.9295
 20
8.52611
 30
0
 10
86.4132
 20
8.75287
 30
0
 10
86.7749
 20
9.07537
 30
0
  0
LINE
  5
B3A
330
A02
100
AcDbEntity
  8
ShapeString
100
AcDbLine
 10
85.9295
 20
7.97028
 30
0
 11
85.9295
 21
8.52611
 31
0
  0
SPLINE
  5
B3B
330
A02
100
AcDbEntity
  8
ShapeString
100
AcDbSpline
210
0
220
0
230
1
 70
8
 71
2
 72
6
 73
3
 74
0
 40
0
 40
0
 40
0
 40
1
 40
1
 40
1
 10
86.5374
 20
8.2673
 30
0
 10
86.1989
 20
8.06921
 30
0
 10
85.9295
 20
7.97028
 30
0
  0
SPLINE
  5
B3C
330
A02
100
AcDbEntity
  8
ShapeString
100
AcDbSpline
210
0
220
0
230
1
 70
8
 71
2
 72
6
 73
3
 74
0
 40
0
 40
0
 40
0
 40
1
 40
1
 40
1
 10
87.0845
 20
8.66348
 30
0
 10
86.876
 20
8.46539
 30
0
 10
86.5374
 20
8.2673
 30
0
  0
LINE
  5
B3D
330
A02
100
AcDbEntity
  8
ShapeString
100
AcDbLine
 10
87.0845
 20
5
 30
0
 11
87.0845
 21
8.66348
 31
0
  0
SPLINE
  5
B3E
330
A02
100
AcDbEntity
  8
ShapeString
100
AcDbSpline
210
0
220
0
230
1
 70
8
 71
2
 72
6
 73
3
 74
0
 40
0
 40
0
 40
0
 40
1
 40
1
 40
1
 10
95.421
 20
7.52803
 30
0
 10
95.0648
 20
7.65966
 30
0
 10
94.8928
 20
7.90361
 30
0
  0
SPLINE
  5
B3F
330
A02
100
AcDbEntity
  8
ShapeString
100
AcDbSpline
210
0
220
0
230
1
 70
8
 71
2
 72
6
 73
3
 74
0
 40
0
 40
0
 40
0
 40
1
 40
1
 40
1
 10
94.762
 20
7.10955
 30
0
 10
94.9934
 20
7.41656
 30
0
 10
95.421
 20
7.52803
 30
0
  0
SPLINE
  5
B40
330
A02
100
AcDbEntity
  8
ShapeString
100
AcDbSpline
210
0
220
0
230
1
 70
8
 71
2
 72
6
 73
3
 74
0
 40
0
 40
0
 40
0
 40
1
 40
1
 40
1
 10
94.5308
 20
6.34735
 30
0
 10
94.5308
 20
6.80255
 30
0
 10
94.762
 20
7.10955
 30
0
  0
SPLINE
  5
B41
330
A02
100
AcDbEntity
  8
ShapeString
100
AcDbSpline
210
0
220
0
230
1
 70
8
 71
2
 72
6
 73
3
 74
0
 40
0
 40
0
 40
0
 40
1
 40
1
 40
1
 10
94.9554
 20
5.32739
 30
0
 10
94.5308
 20
5.73631
 30
0
 10
94.5308
 20
6.34735
 30
0
  0
SPLINE
  5
B42
330
A02
100
AcDbEntity
  8
ShapeString
100
AcDbSpline
210
0
220
0
230
1
 70
8
 71
2
 72
6
 73
3
 74
0
 40
0
 40
0
 40
0
 40
1
 40
1
 40
1
 10
96.073
 20
4.91847
 30
0
 10
95.38
 20
4.91847
 30
0
 10
94.9554
 20
5.32739
 30
0
  0
SPLINE
  5
B43
330
A02
100
AcDbEntity
  8
ShapeString
100
AcDbSpline
210
0
220
0
230
1
 70
8
 71
2
 72
6
 73
3
 74
0
 40
0
 40
0
 40
0
 40
1
 40
1
 40
1
 10
97.1907
 20
5.32569
 30
0
 10
96.766
 20
4.91847
 30
0
 10
96.073
 20
4.91847
 30
0
  0
SPLINE
  5
B44
330
A02
100
AcDbEntity
  8
ShapeString
100
AcDbSpline
210
0
220
0
230
1
 70
8
 71
2
 72
6
 73
3
 74
0
 40
0
 40
0
 40
0
 40
1
 40
1
 40
1
 10
97.6153
 20
6.33142
 30
0
 10
97.6153
 20
5.73312
 30
0
 10
97.1907
 20
5.32569
 30
0
  0
SPLINE
  5
B45
330
A02
100
AcDbEntity
  8
ShapeString
100
AcDbSpline
210
0
220
0
230
1
 70
8
 71
2
 72
6
 73
3
 74
0
 40
0
 40
0
 40
0
 40
1
 40
1
 40
1
 10
97.3919
 20
7.07601
 30
0
 10
97.6153
 20
6.76433
 30
0
 10
97.6153
 20
6.33142
 30
0
  0
SPLINE
  5
B46
330
A02
100
AcDbEntity
  8
ShapeString
100
AcDbSpline
210
0
220
0
230
1
 70
8
 71
2
 72
6
 73
3
 74
0
 40
0
 40
0
 40
0
 40
1
 40
1
 40
1
 10
96.7412
 20
7.52803
 30
0
 10
97.1688
 20
7.3879
 30
0
 10
97.3919
 20
7.07601
 30
0
  0
SPLINE
  5
B47
330
A02
100
AcDbEntity
  8
ShapeString
100
AcDbSpline
210
0
220
0
230
1
 70
8
 71
2
 72
6
 73
3
 74
0
 40
0
 40
0
 40
0
 40
1
 40
1
 40
1
 10
97.2556
 20
7.90191
 30
0
 10
97.0862
 20
7.65966
 30
0
 10
96.7412
 20
7.52803
 30
0
  0
SPLINE
  5
B48
330
A02
100
AcDbEntity
  8
ShapeString
100
AcDbSpline
210
0
220
0
230
1
 70
8
 71
2
 72
6
 73
3
 74
0
 40
0
 40
0
 40
0
 40
1
 40
1
 40
1
 10
97.4251
 20
8.47197
 30
0
 10
97.4251
 20
8.14437
 30
0
 10
97.2556
 20
7.90191
 30
0
  0
SPLINE
  5
B49
330
A02
100
AcDbEntity
  8
ShapeString
100
AcDbSpline
210
0
220
0
230
1
 70
8
 71
2
 72
6
 73
3
 74
0
 40
0
 40
0
 40
0
 40
1
 40
1
 40
1
 10
97.0514
 20
9.34352
 30
0
 10
97.4251
 20
8.98556
 30
0
 10
97.4251
 20
8.47197
 30
0
  0
SPLINE
  5
B4A
330
A02
100
AcDbEntity
  8
ShapeString
100
AcDbSpline
210
0
220
0
230
1
 70
8
 71
2
 72
6
 73
3
 74
0
 40
0
 40
0
 40
0
 40
1
 40
1
 40
1
 10
96.065
 20
9.70149
 30
0
 10
96.6779
 20
9.70149
 30
0
 10
97.0514
 20
9.34352
 30
0
  0
SPLINE
  5
B4B
330
A02
100
AcDbEntity
  8
ShapeString
100
AcDbSpline
210
0
220
0
230
1
 70
8
 71
2
 72
6
 73
3
 74
0
 40
0
 40
0
 40
0
 40
1
 40
1
 40
1
 10
95.0881
 20
9.35159
 30
0
 10
95.4552
 20
9.70149
 30
0
 10
96.065
 20
9.70149
 30
0
  0
SPLINE
  5
B4C
330
A02
100
AcDbEntity
  8
ShapeString
100
AcDbSpline
210
0
220
0
230
1
 70
8
 71
2
 72
6
 73
3
 74
0
 40
0
 40
0
 40
0
 40
1
 40
1
 40
1
 10
94.721
 20
8.4879
 30
0
 10
94.721
 20
9.0017
 30
0
 10
95.0881
 20
9.35159
 30
0
  0
SPLINE
  5
B4D
330
A02
100
AcDbEntity
  8
ShapeString
100
AcDbSpline
210
0
220
0
230
1
 70
8
 71
2
 72
6
 73
3
 74
0
 40
0
 40
0
 40
0
 40
1
 40
1
 40
1
 10
94.8928
 20
7.90361
 30
0
 10
94.721
 20
8.14756
 30
0
 10
94.721
 20
8.4879
 30
0
  0
SPLINE
  5
B4E
330
A02
100
AcDbEntity
  8
ShapeString
100
AcDbSpline
210
0
220
0
230
1
 70
8
 71
2
 72
6
 73
3
 74
0
 40
0
 40
0
 40
0
 40
1
 40
1
 40
1
 10
95.1151
 20
6.34798
 30
0
 10
95.1151
 20
6.10318
 30
0
 10
95.2287
 20
5.8741
 30
0
  0
SPLINE
  5
B4F
330
A02
100
AcDbEntity
  8
ShapeString
100
AcDbSpline
210
0
220
0
230
1
 70
8
 71
2
 72
6
 73
3
 74
0
 40
0
 40
0
 40
0
 40
1
 40
1
 40
1
 10
95.3796
 20
7.01571
 30
0
 10
95.1151
 20
6.74862
 30
0
 10
95.1151
 20
6.34798
 30
0
  0
SPLINE
  5
B50
330
A02
100
AcDbEntity
  8
ShapeString
100
AcDbSpline
210
0
220
0
230
1
 70
8
 71
2
 72
6
 73
3
 74
0
 40
0
 40
0
 40
0
 40
1
 40
1
 40
1
 10
96.0586
 20
7.2828
 30
0
 10
95.6442
 20
7.2828
 30
0
 10
95.3796
 20
7.01571
 30
0
  0
SPLINE
  5
B51
330
A02
100
AcDbEntity
  8
ShapeString
100
AcDbSpline
210
0
220
0
230
1
 70
8
 71
2
 72
6
 73
3
 74
0
 40
0
 40
0
 40
0
 40
1
 40
1
 40
1
 10
96.7567
 20
7.01253
 30
0
 10
96.4826
 20
7.2828
 30
0
 10
96.0586
 20
7.2828
 30
0
  0
SPLINE
  5
B52
330
A02
100
AcDbEntity
  8
ShapeString
100
AcDbSpline
210
0
220
0
230
1
 70
8
 71
2
 72
6
 73
3
 74
0
 40
0
 40
0
 40
0
 40
1
 40
1
 40
1
 10
97.031
 20
6.32887
 30
0
 10
97.031
 20
6.74225
 30
0
 10
96.7567
 20
7.01253
 30
0
  0
SPLINE
  5
B53
330
A02
100
AcDbEntity
  8
ShapeString
100
AcDbSpline
210
0
220
0
230
1
 70
8
 71
2
 72
6
 73
3
 74
0
 40
0
 40
0
 40
0
 40
1
 40
1
 40
1
 10
96.7648
 20
5.65796
 30
0
 10
97.031
 20
5.92187
 30
0
 10
97.031
 20
6.32887
 30
0
  0
SPLINE
  5
B54
330
A02
100
AcDbEntity
  8
ShapeString
100
AcDbSpline
210
0
220
0
230
1
 70
8
 71
2
 72
6
 73
3
 74
0
 40
0
 40
0
 40
0
 40
1
 40
1
 40
1
 10
96.0779
 20
5.39406
 30
0
 10
96.4987
 20
5.39406
 30
0
 10
96.7648
 20
5.65796
 30
0
  0
SPLINE
  5
B55
330
A02
100
AcDbEntity
  8
ShapeString
100
AcDbSpline
210
0
220
0
230
1
 70
8
 71
2
 72
6
 73
3
 74
0
 40
0
 40
0
 40
0
 40
1
 40
1
 40
1
 10
95.5769
 20
5.51953
 30
0
 10
95.8115
 20
5.39406
 30
0
 10
96.0779
 20
5.39406
 30
0
  0
SPLINE
  5
B56
330
A02
100
AcDbEntity
  8
ShapeString
100
AcDbSpline
210
0
220
0
230
1
 70
8
 71
2
 72
6
 73
3
 74
0
 40
0
 40
0
 40
0
 40
1
 40
1
 40
1
 10
95.2287
 20
5.8741
 30
0
 10
95.3425
 20
5.64522
 30
0
 10
95.5769
 20
5.51953
 30
0
  0
SPLINE
  5
B57
330
A02
100
AcDbEntity
  8
ShapeString
100
AcDbSpline
210
0
220
0
230
1
 70
8
 71
2
 72
6
 73
3
 74
0
 40
0
 40
0
 40
0
 40
1
 40
1
 40
1
 10
95.3053
 20
8.50467
 30
0
 10
95.3053
 20
8.16985
 30
0
 10
95.517
 20
7.95732
 30
0
  0
SPLINE
  5
B58
330
A02
100
AcDbEntity
  8
ShapeString
100
AcDbSpline
210
0
220
0
230
1
 70
8
 71
2
 72
6
 73
3
 74
0
 40
0
 40
0
 40
0
 40
1
 40
1
 40
1
 10
95.5204
 20
9.01338
 30
0
 10
95.3053
 20
8.80085
 30
0
 10
95.3053
 20
8.50467
 30
0
  0
SPLINE
  5
B59
330
A02
100
AcDbEntity
  8
ShapeString
100
AcDbSpline
210
0
220
0
230
1
 70
8
 71
2
 72
6
 73
3
 74
0
 40
0
 40
0
 40
0
 40
1
 40
1
 40
1
 10
96.073
 20
9.2259
 30
0
 10
95.7355
 20
9.2259
 30
0
 10
95.5204
 20
9.01338
 30
0
  0
SPLINE
  5
B5A
330
A02
100
AcDbEntity
  8
ShapeString
100
AcDbSpline
210
0
220
0
230
1
 70
8
 71
2
 72
6
 73
3
 74
0
 40
0
 40
0
 40
0
 40
1
 40
1
 40
1
 10
96.624
 20
9.00849
 30
0
 10
96.4074
 20
9.2259
 30
0
 10
96.073
 20
9.2259
 30
0
  0
SPLINE
  5
B5B
330
A02
100
AcDbEntity
  8
ShapeString
100
AcDbSpline
210
0
220
0
230
1
 70
8
 71
2
 72
6
 73
3
 74
0
 40
0
 40
0
 40
0
 40
1
 40
1
 40
1
 10
96.8408
 20
8.4724
 30
0
 10
96.8408
 20
8.7913
 30
0
 10
96.624
 20
9.00849
 30
0
  0
SPLINE
  5
B5C
330
A02
100
AcDbEntity
  8
ShapeString
100
AcDbSpline
210
0
220
0
230
1
 70
8
 71
2
 72
6
 73
3
 74
0
 40
0
 40
0
 40
0
 40
1
 40
1
 40
1
 10
96.6306
 20
7.95563
 30
0
 10
96.8408
 20
8.16667
 30
0
 10
96.8408
 20
8.4724
 30
0
  0
SPLINE
  5
B5D
330
A02
100
AcDbEntity
  8
ShapeString
100
AcDbSpline
210
0
220
0
230
1
 70
8
 71
2
 72
6
 73
3
 74
0
 40
0
 40
0
 40
0
 40
1
 40
1
 40
1
 10
96.0794
 20
7.7448
 30
0
 10
96.4204
 20
7.7448
 30
0
 10
96.6306
 20
7.95563
 30
0
  0
SPLINE
  5
B5E
330
A02
100
AcDbEntity
  8
ShapeString
100
AcDbSpline
210
0
220
0
230
1
 70
8
 71
2
 72
6
 73
3
 74
0
 40
0
 40
0
 40
0
 40
1
 40
1
 40
1
 10
95.517
 20
7.95732
 30
0
 10
95.7289
 20
7.7448
 30
0
 10
96.0794
 20
7.7448
 30
0
  0
SPLINE
  5
B5F
330
A02
100
AcDbEntity
  8
ShapeString
100
AcDbSpline
210
0
220
0
230
1
 70
8
 71
2
 72
6
 73
3
 74
0
 40
0
 40
0
 40
0
 40
1
 40
1
 40
1
 10
98.1724
 20
7.30828
 30
0
 10
98.1724
 20
8.13907
 30
0
 10
98.3435
 20
8.64883
 30
0
  0
SPLINE
  5
B60
330
A02
100
AcDbEntity
  8
ShapeString
100
AcDbSpline
210
0
220
0
230
1
 70
8
 71
2
 72
6
 73
3
 74
0
 40
0
 40
0
 40
0
 40
1
 40
1
 40
1
 10
98.6361
 20
5.39724
 30
0
 10
98.1724
 20
5.98875
 30
0
 10
98.1724
 20
7.30828
 30
0
  0
SPLINE
  5
B61
330
A02
100
AcDbEntity
  8
ShapeString
100
AcDbSpline
210
0
220
0
230
1
 70
8
 71
2
 72
6
 73
3
 74
0
 40
0
 40
0
 40
0
 40
1
 40
1
 40
1
 10
99.7011
 20
4.91847
 30
0
 10
99.0231
 20
4.91847
 30
0
 10
98.6361
 20
5.39724
 30
0
  0
SPLINE
  5
B62
330
A02
100
AcDbEntity
  8
ShapeString
100
AcDbSpline
210
0
220
0
230
1
 70
8
 71
2
 72
6
 73
3
 74
0
 40
0
 40
0
 40
0
 40
1
 40
1
 40
1
 10
100.553
 20
5.1913
 30
0
 10
100.216
 20
4.91847
 30
0
 10
99.7011
 20
4.91847
 30
0
  0
SPLINE
  5
B63
330
A02
100
AcDbEntity
  8
ShapeString
100
AcDbSpline
210
0
220
0
230
1
 70
8
 71
2
 72
6
 73
3
 74
0
 40
0
 40
0
 40
0
 40
1
 40
1
 40
1
 10
101.06
 20
5.9741
 30
0
 10
100.891
 20
5.46433
 30
0
 10
100.553
 20
5.1913
 30
0
  0
SPLINE
  5
B64
330
A02
100
AcDbEntity
  8
ShapeString
100
AcDbSpline
210
0
220
0
230
1
 70
8
 71
2
 72
6
 73
3
 74
0
 40
0
 40
0
 40
0
 40
1
 40
1
 40
1
 10
101.23
 20
7.30828
 30
0
 10
101.23
 20
6.48408
 30
0
 10
101.06
 20
5.9741
 30
0
  0
SPLINE
  5
B65
330
A02
100
AcDbEntity
  8
ShapeString
100
AcDbSpline
210
0
220
0
230
1
 70
8
 71
2
 72
6
 73
3
 74
0
 40
0
 40
0
 40
0
 40
1
 40
1
 40
1
 10
101.124
 20
8.4155
 30
0
 10
101.23
 20
8.00488
 30
0
 10
101.23
 20
7.30828
 30
0
  0
SPLINE
  5
B66
330
A02
100
AcDbEntity
  8
ShapeString
100
AcDbSpline
210
0
220
0
230
1
 70
8
 71
2
 72
6
 73
3
 74
0
 40
0
 40
0
 40
0
 40
1
 40
1
 40
1
 10
100.837
 20
9.11189
 30
0
 10
101.019
 20
8.82611
 30
0
 10
101.124
 20
8.4155
 30
0
  0
SPLINE
  5
B67
330
A02
100
AcDbEntity
  8
ShapeString
100
AcDbSpline
210
0
220
0
230
1
 70
8
 71
2
 72
6
 73
3
 74
0
 40
0
 40
0
 40
0
 40
1
 40
1
 40
1
 10
100.366
 20
9.54968
 30
0
 10
100.655
 20
9.39788
 30
0
 10
100.837
 20
9.11189
 30
0
  0
SPLINE
  5
B68
330
A02
100
AcDbEntity
  8
ShapeString
100
AcDbSpline
210
0
220
0
230
1
 70
8
 71
2
 72
6
 73
3
 74
0
 40
0
 40
0
 40
0
 40
1
 40
1
 40
1
 10
99.7011
 20
9.70149
 30
0
 10
100.078
 20
9.70149
 30
0
 10
100.366
 20
9.54968
 30
0
  0
SPLINE
  5
B69
330
A02
100
AcDbEntity
  8
ShapeString
100
AcDbSpline
210
0
220
0
230
1
 70
8
 71
2
 72
6
 73
3
 74
0
 40
0
 40
0
 40
0
 40
1
 40
1
 40
1
 10
98.852
 20
9.43015
 30
0
 10
99.1894
 20
9.70149
 30
0
 10
99.7011
 20
9.70149
 30
0
  0
SPLINE
  5
B6A
330
A02
100
AcDbEntity
  8
ShapeString
100
AcDbSpline
210
0
220
0
230
1
 70
8
 71
2
 72
6
 73
3
 74
0
 40
0
 40
0
 40
0
 40
1
 40
1
 40
1
 10
98.3435
 20
8.64883
 30
0
 10
98.5146
 20
9.15881
 30
0
 10
98.852
 20
9.43015
 30
0
  0
SPLINE
  5
B6B
330
A02
100
AcDbEntity
  8
ShapeString
100
AcDbSpline
210
0
220
0
230
1
 70
8
 71
2
 72
6
 73
3
 74
0
 40
0
 40
0
 40
0
 40
1
 40
1
 40
1
 10
98.7567
 20
7.30998
 30
0
 10
98.7567
 20
6.15053
 30
0
 10
99.0291
 20
5.77219
 30
0
  0
SPLINE
  5
B6C
330
A02
100
AcDbEntity
  8
ShapeString
100
AcDbSpline
210
0
220
0
230
1
 70
8
 71
2
 72
6
 73
3
 74
0
 40
0
 40
0
 40
0
 40
1
 40
1
 40
1
 10
99.0531
 20
8.89066
 30
0
 10
98.7567
 20
8.46263
 30
0
 10
98.7567
 20
7.30998
 30
0
  0
SPLINE
  5
B6D
330
A02
100
AcDbEntity
  8
ShapeString
100
AcDbSpline
210
0
220
0
230
1
 70
8
 71
2
 72
6
 73
3
 74
0
 40
0
 40
0
 40
0
 40
1
 40
1
 40
1
 10
99.6947
 20
9.2259
 30
0
 10
99.2949
 20
9.2259
 30
0
 10
99.0531
 20
8.89066
 30
0
  0
SPLINE
  5
B6E
330
A02
100
AcDbEntity
  8
ShapeString
100
AcDbSpline
210
0
220
0
230
1
 70
8
 71
2
 72
6
 73
3
 74
0
 40
0
 40
0
 40
0
 40
1
 40
1
 40
1
 10
100.375
 20
8.84586
 30
0
 10
100.104
 20
9.2259
 30
0
 10
99.6947
 20
9.2259
 30
0
  0
SPLINE
  5
B6F
330
A02
100
AcDbEntity
  8
ShapeString
100
AcDbSpline
210
0
220
0
230
1
 70
8
 71
2
 72
6
 73
3
 74
0
 40
0
 40
0
 40
0
 40
1
 40
1
 40
1
 10
100.645
 20
7.30998
 30
0
 10
100.645
 20
8.46582
 30
0
 10
100.375
 20
8.84586
 30
0
  0
SPLINE
  5
B70
330
A02
100
AcDbEntity
  8
ShapeString
100
AcDbSpline
210
0
220
0
230
1
 70
8
 71
2
 72
6
 73
3
 74
0
 40
0
 40
0
 40
0
 40
1
 40
1
 40
1
 10
100.373
 20
5.77389
 30
0
 10
100.645
 20
6.15372
 30
0
 10
100.645
 20
7.30998
 30
0
  0
SPLINE
  5
B71
330
A02
100
AcDbEntity
  8
ShapeString
100
AcDbSpline
210
0
220
0
230
1
 70
8
 71
2
 72
6
 73
3
 74
0
 40
0
 40
0
 40
0
 40
1
 40
1
 40
1
 10
99.7011
 20
5.39406
 30
0
 10
100.101
 20
5.39406
 30
0
 10
100.373
 20
5.77389
 30
0
  0
SPLINE
  5
B72
330
A02
100
AcDbEntity
  8
ShapeString
100
AcDbSpline
210
0
220
0
230
1
 70
8
 71
2
 72
6
 73
3
 74
0
 40
0
 40
0
 40
0
 40
1
 40
1
 40
1
 10
99.0291
 20
5.77219
 30
0
 10
99.3015
 20
5.39406
 30
0
 10
99.7011
 20
5.39406
 30
0
  0
LINE
  5
B73
330
A02
100
AcDbEntity
  8
ShapeString
100
AcDbLine
 10
104.817
 20
5.55711
 30
0
 11
104.817
 21
5
 31
0
  0
LINE
  5
B74
330
A02
100
AcDbEntity
  8
ShapeString
100
AcDbLine
 10
102.515
 20
5.55711
 30
0
 11
104.817
 21
5.55711
 31
0
  0
SPLINE
  5
B75
330
A02
100
AcDbEntity
  8
ShapeString
100
AcDbSpline
210
0
220
0
230
1
 70
8
 71
2
 72
6
 73
3
 74
0
 40
0
 40
0
 40
0
 40
1
 40
1
 40
1
 10
102.762
 20
5.86815
 30
0
 10
102.613
 20
5.71338
 30
0
 10
102.515
 20
5.55711
 30
0
  0
SPLINE
  5
B76
330
A02
100
AcDbEntity
  8
ShapeString
100
AcDbSpline
210
0
220
0
230
1
 70
8
 71
2
 72
6
 73
3
 74
0
 40
0
 40
0
 40
0
 40
1
 40
1
 40
1
 10
103.43
 20
6.4569
 30
0
 10
102.912
 20
6.02293
 30
0
 10
102.762
 20
5.86815
 30
0
  0
SPLINE
  5
B77
330
A02
100
AcDbEntity
  8
ShapeString
100
AcDbSpline
210
0
220
0
230
1
 70
8
 71
2
 72
6
 73
3
 74
0
 40
0
 40
0
 40
0
 40
1
 40
1
 40
1
 10
104.316
 20
7.27983
 30
0
 10
104.046
 20
6.98004
 30
0
 10
103.43
 20
6.4569
 30
0
  0
SPLINE
  5
B78
330
A02
100
AcDbEntity
  8
ShapeString
100
AcDbSpline
210
0
220
0
230
1
 70
8
 71
2
 72
6
 73
3
 74
0
 40
0
 40
0
 40
0
 40
1
 40
1
 40
1
 10
104.701
 20
7.85096
 30
0
 10
104.585
 20
7.57983
 30
0
 10
104.316
 20
7.27983
 30
0
  0
SPLINE
  5
B79
330
A02
100
AcDbEntity
  8
ShapeString
100
AcDbSpline
210
0
220
0
230
1
 70
8
 71
2
 72
6
 73
3
 74
0
 40
0
 40
0
 40
0
 40
1
 40
1
 40
1
 10
104.817
 20
8.40297
 30
0
 10
104.817
 20
8.12229
 30
0
 10
104.701
 20
7.85096
 30
0
  0
SPLINE
  5
B7A
330
A02
100
AcDbEntity
  8
ShapeString
100
AcDbSpline
210
0
220
0
230
1
 70
8
 71
2
 72
6
 73
3
 74
0
 40
0
 40
0
 40
0
 40
1
 40
1
 40
1
 10
104.423
 20
9.32824
 30
0
 10
104.817
 20
8.95499
 30
0
 10
104.817
 20
8.40297
 30
0
  0
SPLINE
  5
B7B
330
A02
100
AcDbEntity
  8
ShapeString
100
AcDbSpline
210
0
220
0
230
1
 70
8
 71
2
 72
6
 73
3
 74
0
 40
0
 40
0
 40
0
 40
1
 40
1
 40
1
 10
103.353
 20
9.70149
 30
0
 10
104.029
 20
9.70149
 30
0
 10
104.423
 20
9.32824
 30
0
  0
SPLINE
  5
B7C
330
A02
100
AcDbEntity
  8
ShapeString
100
AcDbSpline
210
0
220
0
230
1
 70
8
 71
2
 72
6
 73
3
 74
0
 40
0
 40
0
 40
0
 40
1
 40
1
 40
1
 10
102.286
 20
9.35711
 30
0
 10
102.683
 20
9.70149
 30
0
 10
103.353
 20
9.70149
 30
0
  0
SPLINE
  5
B7D
330
A02
100
AcDbEntity
  8
ShapeString
100
AcDbSpline
210
0
220
0
230
1
 70
8
 71
2
 72
6
 73
3
 74
0
 40
0
 40
0
 40
0
 40
1
 40
1
 40
1
 10
101.828
 20
8.35626
 30
0
 10
101.889
 20
9.01295
 30
0
 10
102.286
 20
9.35711
 30
0
  0
LINE
  5
B7E
330
A02
100
AcDbEntity
  8
ShapeString
100
AcDbLine
 10
102.412
 20
8.27473
 30
0
 11
101.828
 21
8.35626
 31
0
  0
SPLINE
  5
B7F
330
A02
100
AcDbEntity
  8
ShapeString
100
AcDbSpline
210
0
220
0
230
1
 70
8
 71
2
 72
6
 73
3
 74
0
 40
0
 40
0
 40
0
 40
1
 40
1
 40
1
 10
102.667
 20
8.97346
 30
0
 10
102.415
 20
8.72123
 30
0
 10
102.412
 20
8.27473
 30
0
  0
SPLINE
  5
B80
330
A02
100
AcDbEntity
  8
ShapeString
100
AcDbSpline
210
0
220
0
230
1
 70
8
 71
2
 72
6
 73
3
 74
0
 40
0
 40
0
 40
0
 40
1
 40
1
 40
1
 10
103.34
 20
9.2259
 30
0
 10
102.92
 20
9.2259
 30
0
 10
102.667
 20
8.97346
 30
0
  0
SPLINE
  5
B81
330
A02
100
AcDbEntity
  8
ShapeString
100
AcDbSpline
210
0
220
0
230
1
 70
8
 71
2
 72
6
 73
3
 74
0
 40
0
 40
0
 40
0
 40
1
 40
1
 40
1
 10
103.985
 20
8.99214
 30
0
 10
103.738
 20
9.2259
 30
0
 10
103.34
 20
9.2259
 30
0
  0
SPLINE
  5
B82
330
A02
100
AcDbEntity
  8
ShapeString
100
AcDbSpline
210
0
220
0
230
1
 70
8
 71
2
 72
6
 73
3
 74
0
 40
0
 40
0
 40
0
 40
1
 40
1
 40
1
 10
104.233
 20
8.41805
 30
0
 10
104.233
 20
8.75839
 30
0
 10
103.985
 20
8.99214
 30
0
  0
SPLINE
  5
B83
330
A02
100
AcDbEntity
  8
ShapeString
100
AcDbSpline
210
0
220
0
230
1
 70
8
 71
2
 72
6
 73
3
 74
0
 40
0
 40
0
 40
0
 40
1
 40
1
 40
1
 10
103.955
 20
7.72611
 30
0
 10
104.233
 20
8.09023
 30
0
 10
104.233
 20
8.41805
 30
0
  0
SPLINE
  5
B84
330
A02
100
AcDbEntity
  8
ShapeString
100
AcDbSpline
210
0
220
0
230
1
 70
8
 71
2
 72
6
 73
3
 74
0
 40
0
 40
0
 40
0
 40
1
 40
1
 40
1
 10
102.916
 20
6.72866
 30
0
 10
103.677
 20
7.362
 30
0
 10
103.955
 20
7.72611
 30
0
  0
SPLINE
  5
B85
330
A02
100
AcDbEntity
  8
ShapeString
100
AcDbSpline
210
0
220
0
230
1
 70
8
 71
2
 72
6
 73
3
 74
0
 40
0
 40
0
 40
0
 40
1
 40
1
 40
1
 10
102.165
 20
6.02166
 30
0
 10
102.425
 20
6.32696
 30
0
 10
102.916
 20
6.72866
 30
0
  0
SPLINE
  5
B86
330
A02
100
AcDbEntity
  8
ShapeString
100
AcDbSpline
210
0
220
0
230
1
 70
8
 71
2
 72
6
 73
3
 74
0
 40
0
 40
0
 40
0
 40
1
 40
1
 40
1
 10
101.786
 20
5.39979
 30
0
 10
101.904
 20
5.71635
 30
0
 10
102.165
 20
6.02166
 30
0
  0
SPLINE
  5
B87
330
A02
100
AcDbEntity
  8
ShapeString
100
AcDbSpline
210
0
220
0
230
1
 70
8
 71
2
 72
6
 73
3
 74
0
 40
0
 40
0
 40
0
 40
1
 40
1
 40
1
 10
101.719
 20
5
 30
0
 10
101.713
 20
5.20786
 30
0
 10
101.786
 20
5.39979
 30
0
  0
LINE
  5
B88
330
A02
100
AcDbEntity
  8
ShapeString
100
AcDbLine
 10
104.817
 20
5
 30
0
 11
101.719
 21
5
 31
0
  0
LINE
  5
B89
330
A02
100
AcDbEntity
  8
ShapeString
100
AcDbLine
 10
105.197
 20
5
 30
0
 11
106.431
 21
6.74501
 31
0
  0
LINE
  5
B8A
330
A02
100
AcDbEntity
  8
ShapeString
100
AcDbLine
 10
105.893
 20
5
 30
0
 11
105.197
 21
5
 31
0
  0
LINE
  5
B8B
330
A02
100
AcDbEntity
  8
ShapeString
100
AcDbLine
 10
106.803
 20
6.28705
 30
0
 11
105.893
 21
5
 31
0
  0
LINE
  5
B8C
330
A02
100
AcDbEntity
  8
ShapeString
100
AcDbLine
 10
106.959
 20
6.04161
 30
0
 11
106.803
 21
6.28705
 31
0
  0
LINE
  5
B8D
330
A02
100
AcDbEntity
  8
ShapeString
100
AcDbLine
 10
107.658
 20
5
 30
0
 11
106.959
 21
6.04161
 31
0
  0
LINE
  5
B8E
330
A02
100
AcDbEntity
  8
ShapeString
100
AcDbLine
 10
108.35
 20
5
 30
0
 11
107.658
 21
5
 31
0
  0
LINE
  5
B8F
330
A02
100
AcDbEntity
  8
ShapeString
100
AcDbLine
 10
107.125
 20
6.74246
 30
0
 11
108.35
 21
5
 31
0
  0
LINE
  5
B90
330
A02
100
AcDbEntity
  8
ShapeString
100
AcDbLine
 10
108.285
 20
8.38344
 30
0
 11
107.125
 21
6.74246
 31
0
  0
LINE
  5
B91
330
A02
100
AcDbEntity
  8
ShapeString
100
AcDbLine
 10
107.589
 20
8.38344
 30
0
 11
108.285
 21
8.38344
 31
0
  0
LINE
  5
B92
330
A02
100
AcDbEntity
  8
ShapeString
100
AcDbLine
 10
107.024
 20
7.58408
 30
0
 11
107.589
 21
8.38344
 31
0
  0
SPLINE
  5
B93
330
A02
100
AcDbEntity
  8
ShapeString
100
AcDbSpline
210
0
220
0
230
1
 70
8
 71
2
 72
6
 73
3
 74
0
 40
0
 40
0
 40
0
 40
1
 40
1
 40
1
 10
106.753
 20
7.20042
 30
0
 10
106.908
 20
7.42038
 30
0
 10
107.024
 20
7.58408
 30
0
  0
SPLINE
  5
B94
330
A02
100
AcDbEntity
  8
ShapeString
100
AcDbSpline
210
0
220
0
230
1
 70
8
 71
2
 72
6
 73
3
 74
0
 40
0
 40
0
 40
0
 40
1
 40
1
 40
1
 10
106.519
 20
7.57983
 30
0
 10
106.663
 20
7.3518
 30
0
 10
106.753
 20
7.20042
 30
0
  0
LINE
  5
B95
330
A02
100
AcDbEntity
  8
ShapeString
100
AcDbLine
 10
105.971
 20
8.38344
 30
0
 11
106.519
 21
7.57983
 31
0
  0
LINE
  5
B96
330
A02
100
AcDbEntity
  8
ShapeString
100
AcDbLine
 10
105.279
 20
8.38344
 30
0
 11
105.971
 21
8.38344
 31
0
  0
LINE
  5
B97
330
A02
100
AcDbEntity
  8
ShapeString
100
AcDbLine
 10
106.431
 20
6.74501
 30
0
 11
105.279
 21
8.38344
 31
0
  0
LINE
  5
B98
330
A02
100
AcDbEntity
  8
ShapeString
100
AcDbLine
 10
111.679
 20
5.55711
 30
0
 11
111.679
 21
5
 31
0
  0
LINE
  5
B99
330
A02
100
AcDbEntity
  8
ShapeString
100
AcDbLine
 10
109.377
 20
5.55711
 30
0
 11
111.679
 21
5.55711
 31
0
  0
SPLINE
  5
B9A
330
A02
100
AcDbEntity
  8
ShapeString
100
AcDbSpline
210
0
220
0
230
1
 70
8
 71
2
 72
6
 73
3
 74
0
 40
0
 40
0
 40
0
 40
1
 40
1
 40
1
 10
109.624
 20
5.86815
 30
0
 10
109.475
 20
5.71338
 30
0
 10
109.377
 20
5.55711
 30
0
  0
SPLINE
  5
B9B
330
A02
100
AcDbEntity
  8
ShapeString
100
AcDbSpline
210
0
220
0
230
1
 70
8
 71
2
 72
6
 73
3
 74
0
 40
0
 40
0
 40
0
 40
1
 40
1
 40
1
 10
110.292
 20
6.4569
 30
0
 10
109.774
 20
6.02293
 30
0
 10
109.624
 20
5.86815
 30
0
  0
SPLINE
  5
B9C
330
A02
100
AcDbEntity
  8
ShapeString
100
AcDbSpline
210
0
220
0
230
1
 70
8
 71
2
 72
6
 73
3
 74
0
 40
0
 40
0
 40
0
 40
1
 40
1
 40
1
 10
111.178
 20
7.27983
 30
0
 10
110.908
 20
6.98004
 30
0
 10
110.292
 20
6.4569
 30
0
  0
SPLINE
  5
B9D
330
A02
100
AcDbEntity
  8
ShapeString
100
AcDbSpline
210
0
220
0
230
1
 70
8
 71
2
 72
6
 73
3
 74
0
 40
0
 40
0
 40
0
 40
1
 40
1
 40
1
 10
111.563
 20
7.85096
 30
0
 10
111.447
 20
7.57983
 30
0
 10
111.178
 20
7.27983
 30
0
  0
SPLINE
  5
B9E
330
A02
100
AcDbEntity
  8
ShapeString
100
AcDbSpline
210
0
220
0
230
1
 70
8
 71
2
 72
6
 73
3
 74
0
 40
0
 40
0
 40
0
 40
1
 40
1
 40
1
 10
111.679
 20
8.40297
 30
0
 10
111.679
 20
8.12229
 30
0
 10
111.563
 20
7.85096
 30
0
  0
SPLINE
  5
B9F
330
A02
100
AcDbEntity
  8
ShapeString
100
AcDbSpline
210
0
220
0
230
1
 70
8
 71
2
 72
6
 73
3
 74
0
 40
0
 40
0
 40
0
 40
1
 40
1
 40
1
 10
111.285
 20
9.32824
 30
0
 10
111.679
 20
8.95499
 30
0
 10
111.679
 20
8.40297
 30
0
  0
SPLINE
  5
BA0
330
A02
100
AcDbEntity
  8
ShapeString
100
AcDbSpline
210
0
220
0
230
1
 70
8
 71
2
 72
6
 73
3
 74
0
 40
0
 40
0
 40
0
 40
1
 40
1
 40
1
 10
110.215
 20
9.70149
 30
0
 10
110.891
 20
9.70149
 30
0
 10
111.285
 20
9.32824
 30
0
  0
SPLINE
  5
BA1
330
A02
100
AcDbEntity
  8
ShapeString
100
AcDbSpline
210
0
220
0
230
1
 70
8
 71
2
 72
6
 73
3
 74
0
 40
0
 40
0
 40
0
 40
1
 40
1
 40
1
 10
109.148
 20
9.35711
 30
0
 10
109.545
 20
9.70149
 30
0
 10
110.215
 20
9.70149
 30
0
  0
SPLINE
  5
BA2
330
A02
100
AcDbEntity
  8
ShapeString
100
AcDbSpline
210
0
220
0
230
1
 70
8
 71
2
 72
6
 73
3
 74
0
 40
0
 40
0
 40
0
 40
1
 40
1
 40
1
 10
108.69
 20
8.35626
 30
0
 10
108.751
 20
9.01295
 30
0
 10
109.148
 20
9.35711
 30
0
  0
LINE
  5
BA3
330
A02
100
AcDbEntity
  8
ShapeString
100
AcDbLine
 10
109.274
 20
8.27473
 30
0
 11
108.69
 21
8.35626
 31
0
  0
SPLINE
  5
BA4
330
A02
100
AcDbEntity
  8
ShapeString
100
AcDbSpline
210
0
220
0
230
1
 70
8
 71
2
 72
6
 73
3
 74
0
 40
0
 40
0
 40
0
 40
1
 40
1
 40
1
 10
109.529
 20
8.97346
 30
0
 10
109.277
 20
8.72123
 30
0
 10
109.274
 20
8.27473
 30
0
  0
SPLINE
  5
BA5
330
A02
100
AcDbEntity
  8
ShapeString
100
AcDbSpline
210
0
220
0
230
1
 70
8
 71
2
 72
6
 73
3
 74
0
 40
0
 40
0
 40
0
 40
1
 40
1
 40
1
 10
110.202
 20
9.2259
 30
0
 10
109.782
 20
9.2259
 30
0
 10
109.529
 20
8.97346
 30
0
  0
SPLINE
  5
BA6
330
A02
100
AcDbEntity
  8
ShapeString
100
AcDbSpline
210
0
220
0
230
1
 70
8
 71
2
 72
6
 73
3
 74
0
 40
0
 40
0
 40
0
 40
1
 40
1
 40
1
 10
110.847
 20
8.99214
 30
0
 10
110.6
 20
9.2259
 30
0
 10
110.202
 20
9.2259
 30
0
  0
SPLINE
  5
BA7
330
A02
100
AcDbEntity
  8
ShapeString
100
AcDbSpline
210
0
220
0
230
1
 70
8
 71
2
 72
6
 73
3
 74
0
 40
0
 40
0
 40
0
 40
1
 40
1
 40
1
 10
111.095
 20
8.41805
 30
0
 10
111.095
 20
8.75839
 30
0
 10
110.847
 20
8.99214
 30
0
  0
SPLINE
  5
BA8
330
A02
100
AcDbEntity
  8
ShapeString
100
AcDbSpline
210
0
220
0
230
1
 70
8
 71
2
 72
6
 73
3
 74
0
 40
0
 40
0
 40
0
 40
1
 40
1
 40
1
 10
110.817
 20
7.72611
 30
0
 10
111.095
 20
8.09023
 30
0
 10
111.095
 20
8.41805
 30
0
  0
SPLINE
  5
BA9
330
A02
100
AcDbEntity
  8
ShapeString
100
AcDbSpline
210
0
220
0
230
1
 70
8
 71
2
 72
6
 73
3
 74
0
 40
0
 40
0
 40
0
 40
1
 40
1
 40
1
 10
109.778
 20
6.72866
 30
0
 10
110.539
 20
7.362
 30
0
 10
110.817
 20
7.72611
 30
0
  0
SPLINE
  5
BAA
330
A02
100
AcDbEntity
  8
ShapeString
100
AcDbSpline
210
0
220
0
230
1
 70
8
 71
2
 72
6
 73
3
 74
0
 40
0
 40
0
 40
0
 40
1
 40
1
 40
1
 10
109.027
 20
6.02166
 30
0
 10
109.287
 20
6.32696
 30
0
 10
109.778
 20
6.72866
 30
0
  0
SPLINE
  5
BAB
330
A02
100
AcDbEntity
  8
ShapeString
100
AcDbSpline
210
0
220
0
230
1
 70
8
 71
2
 72
6
 73
3
 74
0
 40
0
 40
0
 40
0
 40
1
 40
1
 40
1
 10
108.648
 20
5.39979
 30
0
 10
108.766
 20
5.71635
 30
0
 10
109.027
 20
6.02166
 30
0
  0
SPLINE
  5
BAC
330
A02
100
AcDbEntity
  8
ShapeString
100
AcDbSpline
210
0
220
0
230
1
 70
8
 71
2
 72
6
 73
3
 74
0
 40
0
 40
0
 40
0
 40
1
 40
1
 40
1
 10
108.581
 20
5
 30
0
 10
108.575
 20
5.20786
 30
0
 10
108.648
 20
5.39979
 30
0
  0
LINE
  5
BAD
330
A02
100
AcDbEntity
  8
ShapeString
100
AcDbLine
 10
111.679
 20
5
 30
0
 11
108.581
 21
5
 31
0
  0
SPLINE
  5
BAE
330
A02
100
AcDbEntity
  8
ShapeString
100
AcDbSpline
210
0
220
0
230
1
 70
8
 71
2
 72
6
 73
3
 74
0
 40
0
 40
0
 40
0
 40
1
 40
1
 40
1
 10
112.29
 20
7.30828
 30
0
 10
112.29
 20
8.13907
 30
0
 10
112.462
 20
8.64883
 30
0
  0
SPLINE
  5
BAF
330
A02
100
AcDbEntity
  8
ShapeString
100
AcDbSpline
210
0
220
0
230
1
 70
8
 71
2
 72
6
 73
3
 74
0
 40
0
 40
0
 40
0
 40
1
 40
1
 40
1
 10
112.754
 20
5.39724
 30
0
 10
112.29
 20
5.98875
 30
0
 10
112.29
 20
7.30828
 30
0
  0
SPLINE
  5
BB0
330
A02
100
AcDbEntity
  8
ShapeString
100
AcDbSpline
210
0
220
0
230
1
 70
8
 71
2
 72
6
 73
3
 74
0
 40
0
 40
0
 40
0
 40
1
 40
1
 40
1
 10
113.819
 20
4.91847
 30
0
 10
113.141
 20
4.91847
 30
0
 10
112.754
 20
5.39724
 30
0
  0
SPLINE
  5
BB1
330
A02
100
AcDbEntity
  8
ShapeString
100
AcDbSpline
210
0
220
0
230
1
 70
8
 71
2
 72
6
 73
3
 74
0
 40
0
 40
0
 40
0
 40
1
 40
1
 40
1
 10
114.671
 20
5.1913
 30
0
 10
114.334
 20
4.91847
 30
0
 10
113.819
 20
4.91847
 30
0
  0
SPLINE
  5
BB2
330
A02
100
AcDbEntity
  8
ShapeString
100
AcDbSpline
210
0
220
0
230
1
 70
8
 71
2
 72
6
 73
3
 74
0
 40
0
 40
0
 40
0
 40
1
 40
1
 40
1
 10
115.178
 20
5.9741
 30
0
 10
115.009
 20
5.46433
 30
0
 10
114.671
 20
5.1913
 30
0
  0
SPLINE
  5
BB3
330
A02
100
AcDbEntity
  8
ShapeString
100
AcDbSpline
210
0
220
0
230
1
 70
8
 71
2
 72
6
 73
3
 74
0
 40
0
 40
0
 40
0
 40
1
 40
1
 40
1
 10
115.348
 20
7.30828
 30
0
 10
115.348
 20
6.48408
 30
0
 10
115.178
 20
5.9741
 30
0
  0
SPLINE
  5
BB4
330
A02
100
AcDbEntity
  8
ShapeString
100
AcDbSpline
210
0
220
0
230
1
 70
8
 71
2
 72
6
 73
3
 74
0
 40
0
 40
0
 40
0
 40
1
 40
1
 40
1
 10
115.242
 20
8.4155
 30
0
 10
115.348
 20
8.00488
 30
0
 10
115.348
 20
7.30828
 30
0
  0
SPLINE
  5
BB5
330
A02
100
AcDbEntity
  8
ShapeString
100
AcDbSpline
210
0
220
0
230
1
 70
8
 71
2
 72
6
 73
3
 74
0
 40
0
 40
0
 40
0
 40
1
 40
1
 40
1
 10
114.955
 20
9.11189
 30
0
 10
115.137
 20
8.82611
 30
0
 10
115.242
 20
8.4155
 30
0
  0
SPLINE
  5
BB6
330
A02
100
AcDbEntity
  8
ShapeString
100
AcDbSpline
210
0
220
0
230
1
 70
8
 71
2
 72
6
 73
3
 74
0
 40
0
 40
0
 40
0
 40
1
 40
1
 40
1
 10
114.485
 20
9.54968
 30
0
 10
114.773
 20
9.39788
 30
0
 10
114.955
 20
9.11189
 30
0
  0
SPLINE
  5
BB7
330
A02
100
AcDbEntity
  8
ShapeString
100
AcDbSpline
210
0
220
0
230
1
 70
8
 71
2
 72
6
 73
3
 74
0
 40
0
 40
0
 40
0
 40
1
 40
1
 40
1
 10
113.819
 20
9.70149
 30
0
 10
114.196
 20
9.70149
 30
0
 10
114.485
 20
9.54968
 30
0
  0
SPLINE
  5
BB8
330
A02
100
AcDbEntity
  8
ShapeString
100
AcDbSpline
210
0
220
0
230
1
 70
8
 71
2
 72
6
 73
3
 74
0
 40
0
 40
0
 40
0
 40
1
 40
1
 40
1
 10
112.97
 20
9.43015
 30
0
 10
113.307
 20
9.70149
 30
0
 10
113.819
 20
9.70149
 30
0
  0
SPLINE
  5
BB9
330
A02
100
AcDbEntity
  8
ShapeString
100
AcDbSpline
210
0
220
0
230
1
 70
8
 71
2
 72
6
 73
3
 74
0
 40
0
 40
0
 40
0
 40
1
 40
1
 40
1
 10
112.462
 20
8.64883
 30
0
 10
112.633
 20
9.15881
 30
0
 10
112.97
 20
9.43015
 30
0
  0
SPLINE
  5
BBA
330
A02
100
AcDbEntity
  8
ShapeString
100
AcDbSpline
210
0
220
0
230
1
 70
8
 71
2
 72
6
 73
3
 74
0
 40
0
 40
0
 40
0
 40
1
 40
1
 40
1
 10
112.875
 20
7.30998
 30
0
 10
112.875
 20
6.15053
 30
0
 10
113.147
 20
5.77219
 30
0
  0
SPLINE
  5
BBB
330
A02
100
AcDbEntity
  8
ShapeString
100
AcDbSpline
210
0
220
0
230
1
 70
8
 71
2
 72
6
 73
3
 74
0
 40
0
 40
0
 40
0
 40
1
 40
1
 40
1
 10
113.171
 20
8.89066
 30
0
 10
112.875
 20
8.46263
 30
0
 10
112.875
 20
7.30998
 30
0
  0
SPLINE
  5
BBC
330
A02
100
AcDbEntity
  8
ShapeString
100
AcDbSpline
210
0
220
0
230
1
 70
8
 71
2
 72
6
 73
3
 74
0
 40
0
 40
0
 40
0
 40
1
 40
1
 40
1
 10
113.813
 20
9.2259
 30
0
 10
113.413
 20
9.2259
 30
0
 10
113.171
 20
8.89066
 30
0
  0
SPLINE
  5
BBD
330
A02
100
AcDbEntity
  8
ShapeString
100
AcDbSpline
210
0
220
0
230
1
 70
8
 71
2
 72
6
 73
3
 74
0
 40
0
 40
0
 40
0
 40
1
 40
1
 40
1
 10
114.493
 20
8.84586
 30
0
 10
114.222
 20
9.2259
 30
0
 10
113.813
 20
9.2259
 30
0
  0
SPLINE
  5
BBE
330
A02
100
AcDbEntity
  8
ShapeString
100
AcDbSpline
210
0
220
0
230
1
 70
8
 71
2
 72
6
 73
3
 74
0
 40
0
 40
0
 40
0
 40
1
 40
1
 40
1
 10
114.763
 20
7.30998
 30
0
 10
114.763
 20
8.46582
 30
0
 10
114.493
 20
8.84586
 30
0
  0
SPLINE
  5
BBF
330
A02
100
AcDbEntity
  8
ShapeString
100
AcDbSpline
210
0
220
0
230
1
 70
8
 71
2
 72
6
 73
3
 74
0
 40
0
 40
0
 40
0
 40
1
 40
1
 40
1
 10
114.491
 20
5.77389
 30
0
 10
114.763
 20
6.15372
 30
0
 10
114.763
 20
7.30998
 30
0
  0
SPLINE
  5
BC0
330
A02
100
AcDbEntity
  8
ShapeString
100
AcDbSpline
210
0
220
0
230
1
 70
8
 71
2
 72
6
 73
3
 74
0
 40
0
 40
0
 40
0
 40
1
 40
1
 40
1
 10
113.819
 20
5.39406
 30
0
 10
114.219
 20
5.39406
 30
0
 10
114.491
 20
5.77389
 30
0
  0
SPLINE
  5
BC1
330
A02
100
AcDbEntity
  8
ShapeString
100
AcDbSpline
210
0
220
0
230
1
 70
8
 71
2
 72
6
 73
3
 74
0
 40
0
 40
0
 40
0
 40
1
 40
1
 40
1
 10
113.147
 20
5.77219
 30
0
 10
113.42
 20
5.39406
 30
0
 10
113.819
 20
5.39406
 30
0
  0
LINE
  5
BC2
330
A02
100
AcDbEntity
  8
ShapeString
100
AcDbLine
 10
118.935
 20
5.55711
 30
0
 11
118.935
 21
5
 31
0
  0
LINE
  5
BC3
330
A02
100
AcDbEntity
  8
ShapeString
100
AcDbLine
 10
116.634
 20
5.55711
 30
0
 11
118.935
 21
5.55711
 31
0
  0
SPLINE
  5
BC4
330
A02
100
AcDbEntity
  8
ShapeString
100
AcDbSpline
210
0
220
0
230
1
 70
8
 71
2
 72
6
 73
3
 74
0
 40
0
 40
0
 40
0
 40
1
 40
1
 40
1
 10
116.88
 20
5.86815
 30
0
 10
116.731
 20
5.71338
 30
0
 10
116.634
 20
5.55711
 30
0
  0
SPLINE
  5
BC5
330
A02
100
AcDbEntity
  8
ShapeString
100
AcDbSpline
210
0
220
0
230
1
 70
8
 71
2
 72
6
 73
3
 74
0
 40
0
 40
0
 40
0
 40
1
 40
1
 40
1
 10
117.548
 20
6.4569
 30
0
 10
117.03
 20
6.02293
 30
0
 10
116.88
 20
5.86815
 30
0
  0
SPLINE
  5
BC6
330
A02
100
AcDbEntity
  8
ShapeString
100
AcDbSpline
210
0
220
0
230
1
 70
8
 71
2
 72
6
 73
3
 74
0
 40
0
 40
0
 40
0
 40
1
 40
1
 40
1
 10
118.434
 20
7.27983
 30
0
 10
118.165
 20
6.98004
 30
0
 10
117.548
 20
6.4569
 30
0
  0
SPLINE
  5
BC7
330
A02
100
AcDbEntity
  8
ShapeString
100
AcDbSpline
210
0
220
0
230
1
 70
8
 71
2
 72
6
 73
3
 74
0
 40
0
 40
0
 40
0
 40
1
 40
1
 40
1
 10
118.819
 20
7.85096
 30
0
 10
118.703
 20
7.57983
 30
0
 10
118.434
 20
7.27983
 30
0
  0
SPLINE
  5
BC8
330
A02
100
AcDbEntity
  8
ShapeString
100
AcDbSpline
210
0
220
0
230
1
 70
8
 71
2
 72
6
 73
3
 74
0
 40
0
 40
0
 40
0
 40
1
 40
1
 40
1
 10
118.935
 20
8.40297
 30
0
 10
118.935
 20
8.12229
 30
0
 10
118.819
 20
7.85096
 30
0
  0
SPLINE
  5
BC9
330
A02
100
AcDbEntity
  8
ShapeString
100
AcDbSpline
210
0
220
0
230
1
 70
8
 71
2
 72
6
 73
3
 74
0
 40
0
 40
0
 40
0
 40
1
 40
1
 40
1
 10
118.541
 20
9.32824
 30
0
 10
118.935
 20
8.95499
 30
0
 10
118.935
 20
8.40297
 30
0
  0
SPLINE
  5
BCA
330
A02
100
AcDbEntity
  8
ShapeString
100
AcDbSpline
210
0
220
0
230
1
 70
8
 71
2
 72
6
 73
3
 74
0
 40
0
 40
0
 40
0
 40
1
 40
1
 40
1
 10
117.471
 20
9.70149
 30
0
 10
118.147
 20
9.70149
 30
0
 10
118.541
 20
9.32824
 30
0
  0
SPLINE
  5
BCB
330
A02
100
AcDbEntity
  8
ShapeString
100
AcDbSpline
210
0
220
0
230
1
 70
8
 71
2
 72
6
 73
3
 74
0
 40
0
 40
0
 40
0
 40
1
 40
1
 40
1
 10
116.404
 20
9.35711
 30
0
 10
116.801
 20
9.70149
 30
0
 10
117.471
 20
9.70149
 30
0
  0
SPLINE
  5
BCC
330
A02
100
AcDbEntity
  8
ShapeString
100
AcDbSpline
210
0
220
0
230
1
 70
8
 71
2
 72
6
 73
3
 74
0
 40
0
 40
0
 40
0
 40
1
 40
1
 40
1
 10
115.946
 20
8.35626
 30
0
 10
116.007
 20
9.01295
 30
0
 10
116.404
 20
9.35711
 30
0
  0
LINE
  5
BCD
330
A02
100
AcDbEntity
  8
ShapeString
100
AcDbLine
 10
116.53
 20
8.27473
 30
0
 11
115.946
 21
8.35626
 31
0
  0
SPLINE
  5
BCE
330
A02
100
AcDbEntity
  8
ShapeString
100
AcDbSpline
210
0
220
0
230
1
 70
8
 71
2
 72
6
 73
3
 74
0
 40
0
 40
0
 40
0
 40
1
 40
1
 40
1
 10
116.785
 20
8.97346
 30
0
 10
116.533
 20
8.72123
 30
0
 10
116.53
 20
8.27473
 30
0
  0
SPLINE
  5
BCF
330
A02
100
AcDbEntity
  8
ShapeString
100
AcDbSpline
210
0
220
0
230
1
 70
8
 71
2
 72
6
 73
3
 74
0
 40
0
 40
0
 40
0
 40
1
 40
1
 40
1
 10
117.458
 20
9.2259
 30
0
 10
117.038
 20
9.2259
 30
0
 10
116.785
 20
8.97346
 30
0
  0
SPLINE
  5
BD0
330
A02
100
AcDbEntity
  8
ShapeString
100
AcDbSpline
210
0
220
0
230
1
 70
8
 71
2
 72
6
 73
3
 74
0
 40
0
 40
0
 40
0
 40
1
 40
1
 40
1
 10
118.103
 20
8.99214
 30
0
 10
117.856
 20
9.2259
 30
0
 10
117.458
 20
9.2259
 30
0
  0
SPLINE
  5
BD1
330
A02
100
AcDbEntity
  8
ShapeString
100
AcDbSpline
210
0
220
0
230
1
 70
8
 71
2
 72
6
 73
3
 74
0
 40
0
 40
0
 40
0
 40
1
 40
1
 40
1
 10
118.351
 20
8.41805
 30
0
 10
118.351
 20
8.75839
 30
0
 10
118.103
 20
8.99214
 30
0
  0
SPLINE
  5
BD2
330
A02
100
AcDbEntity
  8
ShapeString
100
AcDbSpline
210
0
220
0
230
1
 70
8
 71
2
 72
6
 73
3
 74
0
 40
0
 40
0
 40
0
 40
1
 40
1
 40
1
 10
118.073
 20
7.72611
 30
0
 10
118.351
 20
8.09023
 30
0
 10
118.351
 20
8.41805
 30
0
  0
SPLINE
  5
BD3
330
A02
100
AcDbEntity
  8
ShapeString
100
AcDbSpline
210
0
220
0
230
1
 70
8
 71
2
 72
6
 73
3
 74
0
 40
0
 40
0
 40
0
 40
1
 40
1
 40
1
 10
117.034
 20
6.72866
 30
0
 10
117.795
 20
7.362
 30
0
 10
118.073
 20
7.72611
 30
0
  0
SPLINE
  5
BD4
330
A02
100
AcDbEntity
  8
ShapeString
100
AcDbSpline
210
0
220
0
230
1
 70
8
 71
2
 72
6
 73
3
 74
0
 40
0
 40
0
 40
0
 40
1
 40
1
 40
1
 10
116.283
 20
6.02166
 30
0
 10
116.543
 20
6.32696
 30
0
 10
117.034
 20
6.72866
 30
0
  0
SPLINE
  5
BD5
330
A02
100
AcDbEntity
  8
ShapeString
100
AcDbSpline
210
0
220
0
230
1
 70
8
 71
2
 72
6
 73
3
 74
0
 40
0
 40
0
 40
0
 40
1
 40
1
 40
1
 10
115.904
 20
5.39979
 30
0
 10
116.022
 20
5.71635
 30
0
 10
116.283
 20
6.02166
 30
0
  0
SPLINE
  5
BD6
330
A02
100
AcDbEntity
  8
ShapeString
100
AcDbSpline
210
0
220
0
230
1
 70
8
 71
2
 72
6
 73
3
 74
0
 40
0
 40
0
 40
0
 40
1
 40
1
 40
1
 10
115.837
 20
5
 30
0
 10
115.831
 20
5.20786
 30
0
 10
115.904
 20
5.39979
 30
0
  0
LINE
  5
BD7
330
A02
100
AcDbEntity
  8
ShapeString
100
AcDbLine
 10
118.935
 20
5
 30
0
 11
115.837
 21
5
 31
0
  0
SPLINE
  5
BD8
330
A02
100
AcDbEntity
  8
ShapeString
100
AcDbSpline
210
0
220
0
230
1
 70
8
 71
2
 72
6
 73
3
 74
0
 40
0
 40
0
 40
0
 40
1
 40
1
 40
1
 10
119.546
 20
7.30828
 30
0
 10
119.546
 20
8.13907
 30
0
 10
119.718
 20
8.64883
 30
0
  0
SPLINE
  5
BD9
330
A02
100
AcDbEntity
  8
ShapeString
100
AcDbSpline
210
0
220
0
230
1
 70
8
 71
2
 72
6
 73
3
 74
0
 40
0
 40
0
 40
0
 40
1
 40
1
 40
1
 10
120.01
 20
5.39724
 30
0
 10
119.546
 20
5.98875
 30
0
 10
119.546
 20
7.30828
 30
0
  0
SPLINE
  5
BDA
330
A02
100
AcDbEntity
  8
ShapeString
100
AcDbSpline
210
0
220
0
230
1
 70
8
 71
2
 72
6
 73
3
 74
0
 40
0
 40
0
 40
0
 40
1
 40
1
 40
1
 10
121.075
 20
4.91847
 30
0
 10
120.397
 20
4.91847
 30
0
 10
120.01
 20
5.39724
 30
0
  0
SPLINE
  5
BDB
330
A02
100
AcDbEntity
  8
ShapeString
100
AcDbSpline
210
0
220
0
230
1
 70
8
 71
2
 72
6
 73
3
 74
0
 40
0
 40
0
 40
0
 40
1
 40
1
 40
1
 10
121.927
 20
5.1913
 30
0
 10
121.59
 20
4.91847
 30
0
 10
121.075
 20
4.91847
 30
0
  0
SPLINE
  5
BDC
330
A02
100
AcDbEntity
  8
ShapeString
100
AcDbSpline
210
0
220
0
230
1
 70
8
 71
2
 72
6
 73
3
 74
0
 40
0
 40
0
 40
0
 40
1
 40
1
 40
1
 10
122.434
 20
5.9741
 30
0
 10
122.265
 20
5.46433
 30
0
 10
121.927
 20
5.1913
 30
0
  0
SPLINE
  5
BDD
330
A02
100
AcDbEntity
  8
ShapeString
100
AcDbSpline
210
0
220
0
230
1
 70
8
 71
2
 72
6
 73
3
 74
0
 40
0
 40
0
 40
0
 40
1
 40
1
 40
1
 10
122.604
 20
7.30828
 30
0
 10
122.604
 20
6.48408
 30
0
 10
122.434
 20
5.9741
 30
0
  0
SPLINE
  5
BDE
330
A02
100
AcDbEntity
  8
ShapeString
100
AcDbSpline
210
0
220
0
230
1
 70
8
 71
2
 72
6
 73
3
 74
0
 40
0
 40
0
 40
0
 40
1
 40
1
 40
1
 10
122.498
 20
8.4155
 30
0
 10
122.604
 20
8.00488
 30
0
 10
122.604
 20
7.30828
 30
0
  0
SPLINE
  5
BDF
330
A02
100
AcDbEntity
  8
ShapeString
100
AcDbSpline
210
0
220
0
230
1
 70
8
 71
2
 72
6
 73
3
 74
0
 40
0
 40
0
 40
0
 40
1
 40
1
 40
1
 10
122.211
 20
9.11189
 30
0
 10
122.393
 20
8.82611
 30
0
 10
122.498
 20
8.4155
 30
0
  0
SPLINE
  5
BE0
330
A02
100
AcDbEntity
  8
ShapeString
100
AcDbSpline
210
0
220
0
230
1
 70
8
 71
2
 72
6
 73
3
 74
0
 40
0
 40
0
 40
0
 40
1
 40
1
 40
1
 10
121.741
 20
9.54968
 30
0
 10
122.029
 20
9.39788
 30
0
 10
122.211
 20
9.11189
 30
0
  0
SPLINE
  5
BE1
330
A02
100
AcDbEntity
  8
ShapeString
100
AcDbSpline
210
0
220
0
230
1
 70
8
 71
2
 72
6
 73
3
 74
0
 40
0
 40
0
 40
0
 40
1
 40
1
 40
1
 10
121.075
 20
9.70149
 30
0
 10
121.452
 20
9.70149
 30
0
 10
121.741
 20
9.54968
 30
0
  0
SPLINE
  5
BE2
330
A02
100
AcDbEntity
  8
ShapeString
100
AcDbSpline
210
0
220
0
230
1
 70
8
 71
2
 72
6
 73
3
 74
0
 40
0
 40
0
 40
0
 40
1
 40
1
 40
1
 10
120.226
 20
9.43015
 30
0
 10
120.563
 20
9.70149
 30
0
 10
121.075
 20
9.70149
 30
0
  0
SPLINE
  5
BE3
330
A02
100
AcDbEntity
  8
ShapeString
100
AcDbSpline
210
0
220
0
230
1
 70
8
 71
2
 72
6
 73
3
 74
0
 40
0
 40
0
 40
0
 40
1
 40
1
 40
1
 10
119.718
 20
8.64883
 30
0
 10
119.889
 20
9.15881
 30
0
 10
120.226
 20
9.43015
 30
0
  0
SPLINE
  5
BE4
330
A02
100
AcDbEntity
  8
ShapeString
100
AcDbSpline
210
0
220
0
230
1
 70
8
 71
2
 72
6
 73
3
 74
0
 40
0
 40
0
 40
0
 40
1
 40
1
 40
1
 10
120.131
 20
7.30998
 30
0
 10
120.131
 20
6.15053
 30
0
 10
120.403
 20
5.77219
 30
0
  0
SPLINE
  5
BE5
330
A02
100
AcDbEntity
  8
ShapeString
100
AcDbSpline
210
0
220
0
230
1
 70
8
 71
2
 72
6
 73
3
 74
0
 40
0
 40
0
 40
0
 40
1
 40
1
 40
1
 10
120.427
 20
8.89066
 30
0
 10
120.131
 20
8.46263
 30
0
 10
120.131
 20
7.30998
 30
0
  0
SPLINE
  5
BE6
330
A02
100
AcDbEntity
  8
ShapeString
100
AcDbSpline
210
0
220
0
230
1
 70
8
 71
2
 72
6
 73
3
 74
0
 40
0
 40
0
 40
0
 40
1
 40
1
 40
1
 10
121.069
 20
9.2259
 30
0
 10
120.669
 20
9.2259
 30
0
 10
120.427
 20
8.89066
 30
0
  0
SPLINE
  5
BE7
330
A02
100
AcDbEntity
  8
ShapeString
100
AcDbSpline
210
0
220
0
230
1
 70
8
 71
2
 72
6
 73
3
 74
0
 40
0
 40
0
 40
0
 40
1
 40
1
 40
1
 10
121.749
 20
8.84586
 30
0
 10
121.478
 20
9.2259
 30
0
 10
121.069
 20
9.2259
 30
0
  0
SPLINE
  5
BE8
330
A02
100
AcDbEntity
  8
ShapeString
100
AcDbSpline
210
0
220
0
230
1
 70
8
 71
2
 72
6
 73
3
 74
0
 40
0
 40
0
 40
0
 40
1
 40
1
 40
1
 10
122.02
 20
7.30998
 30
0
 10
122.02
 20
8.46582
 30
0
 10
121.749
 20
8.84586
 30
0
  0
SPLINE
  5
BE9
330
A02
100
AcDbEntity
  8
ShapeString
100
AcDbSpline
210
0
220
0
230
1
 70
8
 71
2
 72
6
 73
3
 74
0
 40
0
 40
0
 40
0
 40
1
 40
1
 40
1
 10
121.747
 20
5.77389
 30
0
 10
122.02
 20
6.15372
 30
0
 10
122.02
 20
7.30998
 30
0
  0
SPLINE
  5
BEA
330
A02
100
AcDbEntity
  8
ShapeString
100
AcDbSpline
210
0
220
0
230
1
 70
8
 71
2
 72
6
 73
3
 74
0
 40
0
 40
0
 40
0
 40
1
 40
1
 40
1
 10
121.075
 20
5.39406
 30
0
 10
121.475
 20
5.39406
 30
0
 10
121.747
 20
5.77389
 30
0
  0
SPLINE
  5
BEB
330
A02
100
AcDbEntity
  8
ShapeString
100
AcDbSpline
210
0
220
0
230
1
 70
8
 71
2
 72
6
 73
3
 74
0
 40
0
 40
0
 40
0
 40
1
 40
1
 40
1
 10
120.403
 20
5.77219
 30
0
 10
120.676
 20
5.39406
 30
0
 10
121.075
 20
5.39406
 30
0
  0
CIRCLE
  5
BEC
330
A02
100
AcDbEntity
  8
Sketch003
100
AcDbCircle
 10
1645
 20
764
 40
3.5
  0
CIRCLE
  5
BED
330
A02
100
AcDbEntity
  8
Sketch003
100
AcDbCircle
 10
1895
 20
764
 40
3.5
  0
LINE
  5
BEE
330
A02
100
AcDbEntity
  8
Sketch012
100
AcDbLine
 10
70
 20
826
 30
0
 11
1950
 21
826
 31
0
  0
ENDSEC
  0
SECTION
  2
OBJECTS
  0
DICTIONARY
  5
F000
330
0
100
AcDbDictionary
  3
ACAD_GROUP
350
F001
  0
DICTIONARY
  5
F001
330
F000
100
AcDbDictionary
  0
ENDSEC
  0
EOF